<svg width="22" height="26" viewBox="0 0 22 26" fill="none" xmlns="http://www.w3.org/2000/svg">
<path d="M17.6473 13.7866C17.6837 17.7138 21.0925 19.0207 21.1302 19.0374C21.1013 19.1295 20.5855 20.8997 19.3344 22.7282C18.2528 24.3091 17.1301 25.8841 15.3617 25.9167C13.6243 25.9487 13.0655 24.8864 11.0789 24.8864C9.09292 24.8864 8.47214 25.8841 6.82729 25.9487C5.12037 26.0134 3.82054 24.2393 2.73002 22.6642C0.50145 19.4425 -1.20159 13.5601 1.08517 9.58946C2.22116 7.61759 4.25139 6.36901 6.45487 6.33698C8.13101 6.30504 9.71313 7.46464 10.7378 7.46464C11.7618 7.46464 13.6844 6.07013 15.7055 6.27491C16.5515 6.31016 18.9267 6.61663 20.4518 8.849C20.3288 8.92518 17.6178 10.5034 17.6473 13.7867M14.3817 4.14341C15.288 3.04646 15.8979 1.51947 15.7315 0C14.4252 0.0524952 12.8458 0.870463 11.9088 1.96676C11.0691 2.93767 10.3337 4.49156 10.5322 5.98091C11.9882 6.09357 13.4755 5.24102 14.3817 4.14341Z" fill="black"/>
</svg>
