<svg width="55" height="13" viewBox="0 0 55 13" fill="none" xmlns="http://www.w3.org/2000/svg">
<path d="M5.86421 4.918C6.29354 5.142 6.62954 5.45467 6.87221 5.856C7.11488 6.248 7.23621 6.696 7.23621 7.2C7.23621 8.00267 6.95154 8.67 6.38221 9.202C5.81288 9.734 5.11754 10 4.29621 10H0.0962109V0.199999H3.98821C4.79088 0.199999 5.46754 0.461333 6.01821 0.983999C6.57821 1.50667 6.85821 2.15067 6.85821 2.916C6.85821 3.756 6.52688 4.42333 5.86421 4.918ZM3.98821 1.712H1.70621V4.288H3.98821C4.34288 4.288 4.64154 4.16667 4.88421 3.924C5.12688 3.672 5.24821 3.364 5.24821 3C5.24821 2.636 5.12688 2.33267 4.88421 2.09C4.64154 1.838 4.34288 1.712 3.98821 1.712ZM1.70621 8.488H4.29621C4.66954 8.488 4.98221 8.35733 5.23421 8.096C5.49554 7.82533 5.62621 7.49867 5.62621 7.116C5.62621 6.73333 5.49554 6.41133 5.23421 6.15C4.98221 5.87933 4.66954 5.744 4.29621 5.744H1.70621V8.488ZM13.3979 6.752V3H14.9099V10H13.3979V9.104C12.9312 9.82267 12.2079 10.182 11.2279 10.182C10.4159 10.182 9.76252 9.92533 9.26785 9.412C8.78252 8.88933 8.53985 8.18467 8.53985 7.298V3H10.0519V7.144C10.0519 7.66667 10.1919 8.068 10.4719 8.348C10.7519 8.628 11.1345 8.768 11.6199 8.768C12.1705 8.768 12.6045 8.6 12.9219 8.264C13.2392 7.91867 13.3979 7.41467 13.3979 6.752ZM19.6039 8.082L21.3959 3H23.0059L20.3179 10.224C19.6459 12.0347 18.5072 12.8933 16.9019 12.8V11.386C17.3686 11.414 17.7466 11.316 18.0359 11.092C18.3252 10.868 18.5679 10.5087 18.7639 10.014L18.8339 9.874L15.8659 3H17.5179L19.6039 8.082ZM33.4293 6.85V0.199999H35.0393V10H33.7793L29.1593 3.35V10H27.5493V0.199999H28.8093L33.4293 6.85ZM42.8206 9.118C42.1113 9.82733 41.2386 10.182 40.2026 10.182C39.1666 10.182 38.2939 9.82733 37.5846 9.118C36.8659 8.39933 36.5066 7.52667 36.5066 6.5C36.5066 5.47333 36.8659 4.60067 37.5846 3.882C38.2939 3.17267 39.1666 2.818 40.2026 2.818C41.2386 2.818 42.1113 3.17267 42.8206 3.882C43.5393 4.60067 43.8986 5.47333 43.8986 6.5C43.8986 7.52667 43.5393 8.39933 42.8206 9.118ZM38.0186 6.5C38.0186 7.13467 38.2286 7.662 38.6486 8.082C39.0686 8.502 39.5866 8.712 40.2026 8.712C40.8186 8.712 41.3366 8.502 41.7566 8.082C42.1766 7.662 42.3866 7.13467 42.3866 6.5C42.3866 5.86533 42.1766 5.338 41.7566 4.918C41.3366 4.498 40.8186 4.288 40.2026 4.288C39.5866 4.288 39.0686 4.498 38.6486 4.918C38.2286 5.338 38.0186 5.86533 38.0186 6.5ZM51.6844 7.83L53.0564 3H54.6524L52.4544 10H50.9704L49.5144 5.282L48.0444 10H46.5604L44.3624 3H45.9584L47.3164 7.83L48.7864 3H50.2284L51.6844 7.83Z" fill="white"/>
</svg>
