<svg width="40" height="40" viewBox="0 0 40 40" fill="none" xmlns="http://www.w3.org/2000/svg">
<circle cx="20" cy="20" r="20" fill="#06844B"/>
<path fill-rule="evenodd" clip-rule="evenodd" d="M29.6404 27.3282C29.0231 29.2042 26.6044 30.1398 24.8764 29.9838C22.5164 29.7704 19.9484 28.5187 17.9991 27.14C15.1337 25.1133 12.4497 21.9784 10.8857 18.6517C9.78039 16.3011 9.5324 13.4109 11.1764 11.2683C11.7844 10.4763 12.4417 10.0533 13.4297 10.0039C14.8004 9.93728 14.9924 10.7214 15.4631 11.9427C15.8137 12.8561 16.2817 13.7877 16.5431 14.7344C17.0324 16.5011 15.3217 16.5749 15.1057 18.0189C14.9711 18.9296 16.0751 20.1508 16.5737 20.8002C17.5511 22.0722 18.7257 23.1693 20.0511 24.0039C20.8097 24.4826 22.0351 25.3452 22.9044 24.8692C24.2431 24.1358 24.1164 21.8786 25.9884 22.6426C26.9577 23.0373 27.8964 23.6068 28.8217 24.1055C30.2524 24.8748 30.1857 25.6722 29.6404 27.3282C30.0484 26.0908 29.2324 28.5655 29.6404 27.3282Z" fill="white"/>
</svg>
