<svg width="28" height="28" viewBox="0 0 28 28" fill="none" xmlns="http://www.w3.org/2000/svg">
<path d="M4.42642 14.035C5.05292 10.899 5.36676 9.33333 6.40159 8.323C6.59284 8.13685 6.79971 7.96745 7.01992 7.81667C8.21342 7 9.81176 7 13.0084 7H14.9953C18.1908 7 19.7879 7 20.9803 7.81667C21.2019 7.96911 21.408 8.13828 21.5986 8.32417C22.6334 9.33333 22.9484 10.9002 23.5749 14.035C24.4744 18.5337 24.9248 20.783 23.8888 22.3767C23.7013 22.6668 23.4835 22.9324 23.2354 23.1735C21.8751 24.5 19.5826 24.5 14.9953 24.5H13.0084C8.41992 24.5 6.12626 24.5 4.76592 23.1723C4.51981 22.9316 4.30109 22.6644 4.11376 22.3755C3.07776 20.7818 3.52809 18.5325 4.42876 14.0338L4.42642 14.035Z" stroke="#181725" stroke-width="1.5"/>
<path d="M17.5007 11.6663C18.145 11.6663 18.6673 11.144 18.6673 10.4997C18.6673 9.85534 18.145 9.33301 17.5007 9.33301C16.8563 9.33301 16.334 9.85534 16.334 10.4997C16.334 11.144 16.8563 11.6663 17.5007 11.6663Z" fill="#181725"/>
<path d="M10.5007 11.6663C11.145 11.6663 11.6673 11.144 11.6673 10.4997C11.6673 9.85534 11.145 9.33301 10.5007 9.33301C9.85632 9.33301 9.33398 9.85534 9.33398 10.4997C9.33398 11.144 9.85632 11.6663 10.5007 11.6663Z" fill="#181725"/>
<path d="M10.5 6.99967V5.83301C10.5 4.90475 10.8687 4.01451 11.5251 3.35813C12.1815 2.70176 13.0717 2.33301 14 2.33301C14.9283 2.33301 15.8185 2.70176 16.4749 3.35813C17.1313 4.01451 17.5 4.90475 17.5 5.83301V6.99967" stroke="#181725" stroke-width="1.5" stroke-linecap="round"/>
</svg>
