<svg width="12" height="13" viewBox="0 0 12 13" fill="none" xmlns="http://www.w3.org/2000/svg">
<path d="M1.21223 7.01652C1.52548 5.44852 1.6824 4.66569 2.19982 4.16052C2.29544 4.06745 2.39888 3.98275 2.50898 3.90736C3.10573 3.49902 3.9049 3.49902 5.50323 3.49902H6.49665C8.0944 3.49902 8.89298 3.49902 9.48915 3.90736C9.59998 3.98358 9.70304 4.06816 9.79832 4.16111C10.3157 4.66569 10.4732 5.44911 10.7865 7.01652C11.2362 9.26586 11.4614 10.3905 10.9434 11.1874C10.8497 11.3324 10.7408 11.4652 10.6167 11.5858C9.93657 12.249 8.79032 12.249 6.49665 12.249H5.50323C3.20898 12.249 2.06215 12.249 1.38198 11.5852C1.25893 11.4648 1.14957 11.3312 1.0559 11.1868C0.537901 10.3899 0.763068 9.26527 1.2134 7.01594L1.21223 7.01652Z" stroke="#181725"/>
<path d="M7.7474 5.83268C8.06956 5.83268 8.33073 5.57152 8.33073 5.24935C8.33073 4.92718 8.06956 4.66602 7.7474 4.66602C7.42523 4.66602 7.16406 4.92718 7.16406 5.24935C7.16406 5.57152 7.42523 5.83268 7.7474 5.83268Z" fill="#181725"/>
<path d="M4.2474 5.83268C4.56956 5.83268 4.83073 5.57152 4.83073 5.24935C4.83073 4.92718 4.56956 4.66602 4.2474 4.66602C3.92523 4.66602 3.66406 4.92718 3.66406 5.24935C3.66406 5.57152 3.92523 5.83268 4.2474 5.83268Z" fill="#181725"/>
<path d="M4.25 3.49935V2.91602C4.25 2.45189 4.43437 2.00677 4.76256 1.67858C5.09075 1.35039 5.53587 1.16602 6 1.16602C6.46413 1.16602 6.90925 1.35039 7.23744 1.67858C7.56563 2.00677 7.75 2.45189 7.75 2.91602V3.49935" stroke="#181725" stroke-linecap="round"/>
</svg>
