<svg width="22" height="22" viewBox="0 0 22 22" fill="none" xmlns="http://www.w3.org/2000/svg">
<path d="M8.9613 20.628L9.49162 21.1583L8.96129 20.628C8.88315 20.7061 8.77717 20.75 8.66667 20.75H1.66667C1.55616 20.75 1.45018 20.7061 1.37204 20.628C1.2939 20.5498 1.25 20.4438 1.25 20.3333V13.3333C1.25 13.2228 1.2939 13.1168 1.37204 13.0387C1.45018 12.9606 1.55616 12.9167 1.66667 12.9167H8.66667C8.77717 12.9167 8.88315 12.9606 8.96129 13.0387C9.03943 13.1168 9.08333 13.2228 9.08333 13.3333V20.3333C9.08333 20.4438 9.03943 20.5498 8.9613 20.628ZM1.66667 1.25H8.66667C8.77717 1.25 8.88315 1.2939 8.96129 1.37204C9.03943 1.45018 9.08333 1.55616 9.08333 1.66667V8.66667C9.08333 8.77717 9.03943 8.88315 8.9613 8.96129L9.49162 9.49162L8.96129 8.9613C8.88315 9.03943 8.77717 9.08333 8.66667 9.08333H1.66667C1.55616 9.08333 1.45018 9.03943 1.37204 8.96129C1.2939 8.88315 1.25 8.77717 1.25 8.66667V1.66667C1.25 1.55616 1.2939 1.45018 1.37204 1.37204C1.45018 1.2939 1.55616 1.25 1.66667 1.25ZM13.3333 1.25H20.3333C20.4438 1.25 20.5498 1.2939 20.628 1.37204C20.7061 1.45018 20.75 1.55616 20.75 1.66667V8.66667C20.75 8.77717 20.7061 8.88315 20.628 8.96129L21.1583 9.49162L20.628 8.9613C20.5498 9.03943 20.4438 9.08333 20.3333 9.08333H13.3333C13.2228 9.08333 13.1168 9.03943 13.0387 8.96129C12.9606 8.88315 12.9167 8.77717 12.9167 8.66667V1.66667C12.9167 1.55616 12.9606 1.45018 13.0387 1.37204C13.1168 1.2939 13.2228 1.25 13.3333 1.25ZM16.8333 12.9167C17.5996 12.9167 18.3491 13.1415 18.9889 13.5632C19.6287 13.9849 20.1307 14.5851 20.4328 15.2894C20.7349 15.9936 20.8238 16.771 20.6884 17.5253C20.553 18.2795 20.1994 18.9775 19.6712 19.5327C19.1431 20.0879 18.4637 20.4761 17.7171 20.649C16.9706 20.8219 16.1897 20.772 15.4713 20.5055C14.7528 20.239 14.1283 19.7676 13.6751 19.1497C13.2236 18.5342 12.9619 17.8003 12.922 17.0381L12.9169 16.8333L12.922 16.6285C12.9744 15.6283 13.408 14.6859 14.134 13.9954C14.862 13.3029 15.8285 12.9167 16.8333 12.9167Z" fill="#06844B" stroke="#06844B" stroke-width="1.5"/>
</svg>
