<svg width="28" height="28" viewBox="0 0 28 28" fill="none" xmlns="http://www.w3.org/2000/svg">
<path d="M11.4107 4.53791C12.0687 3.97791 12.3977 3.69791 12.7407 3.53341C13.1336 3.34555 13.5635 3.24805 13.999 3.24805C14.4345 3.24805 14.8644 3.34555 15.2572 3.53341C15.6014 3.69674 15.9304 3.97674 16.5872 4.53791C16.8497 4.76191 16.9804 4.87274 17.1204 4.96608C17.441 5.18095 17.8011 5.33005 18.1797 5.40474C18.3442 5.43741 18.5157 5.45141 18.8587 5.47941C19.7209 5.54708 20.1514 5.58208 20.5107 5.70924C20.9212 5.85408 21.294 6.08894 21.6018 6.3966C21.9097 6.70426 22.1448 7.07691 22.2899 7.48724C22.4171 7.84774 22.4509 8.27824 22.5197 9.13924C22.5466 9.48224 22.5606 9.65374 22.5932 9.81941C22.6679 10.1974 22.8172 10.5579 23.0319 10.8776C23.1252 11.0176 23.2372 11.1482 23.4601 11.4107C24.0201 12.0687 24.3012 12.3977 24.4657 12.7407C24.6536 13.1336 24.7511 13.5635 24.7511 13.999C24.7511 14.4345 24.6536 14.8644 24.4657 15.2572C24.3024 15.6002 24.0212 15.9292 23.4601 16.5872C23.3071 16.7564 23.1641 16.9345 23.0319 17.1204C22.8172 17.4407 22.6681 17.8003 22.5932 18.1786C22.5606 18.3442 22.5466 18.5157 22.5197 18.8587C22.4509 19.7197 22.4171 20.1514 22.2899 20.5107C22.1448 20.9211 21.9097 21.2937 21.6018 21.6014C21.294 21.909 20.9212 22.1439 20.5107 22.2887C20.1514 22.4171 19.7209 22.4509 18.8587 22.5186C18.5157 22.5466 18.3454 22.5606 18.1797 22.5932C17.8011 22.6679 17.441 22.817 17.1204 23.0319C16.9349 23.1641 16.7572 23.3071 16.5884 23.4601C15.9304 24.0201 15.6014 24.3001 15.2584 24.4646C14.8656 24.6524 14.4356 24.7499 14.0002 24.7499C13.5647 24.7499 13.1348 24.6524 12.7419 24.4646C12.3977 24.3012 12.0687 24.0212 11.4119 23.4601C11.2427 23.3071 11.0647 23.1641 10.8787 23.0319C10.5581 22.817 10.1981 22.6679 9.81941 22.5932C9.59473 22.5551 9.36801 22.5302 9.14041 22.5186C8.27825 22.4509 7.84775 22.4159 7.48841 22.2887C7.07798 22.1439 6.70517 21.909 6.39731 21.6014C6.08946 21.2937 5.85435 20.9211 5.70924 20.5107C5.58208 20.1514 5.54824 19.7197 5.47941 18.8587C5.46824 18.6308 5.4437 18.4037 5.40591 18.1786C5.33107 17.8003 5.18197 17.4407 4.96724 17.1204C4.87391 16.9804 4.76191 16.8497 4.53908 16.5872C3.97908 15.9292 3.69791 15.6002 3.53341 15.2572C3.34555 14.8644 3.24805 14.4345 3.24805 13.999C3.24805 13.5635 3.34555 13.1336 3.53341 12.7407C3.69791 12.3977 3.97791 12.0687 4.53908 11.4107C4.76191 11.1482 4.87391 11.0176 4.96724 10.8776C5.18197 10.5573 5.33107 10.1977 5.40591 9.81941C5.43858 9.65374 5.45258 9.48224 5.47941 9.13924C5.54824 8.27824 5.58208 7.84774 5.70924 7.48724C5.85448 7.07679 6.08976 6.70406 6.39782 6.39639C6.70589 6.08873 7.07893 5.85394 7.48958 5.70924C7.84891 5.58208 8.27941 5.54708 9.14158 5.47941C9.48458 5.45141 9.65491 5.43741 9.82058 5.40474C10.1992 5.33005 10.5593 5.18095 10.8799 4.96608C11.0199 4.87274 11.1494 4.76191 11.4107 4.53791Z" stroke="#181725" stroke-width="1.5"/>
<path d="M10.5 17.5L17.5 10.5" stroke="#181725" stroke-width="1.5" stroke-linecap="round"/>
<path d="M18.0827 16.916C18.0827 17.2254 17.9598 17.5222 17.741 17.741C17.5222 17.9598 17.2254 18.0827 16.916 18.0827C16.6066 18.0827 16.3099 17.9598 16.0911 17.741C15.8723 17.5222 15.7493 17.2254 15.7493 16.916C15.7493 16.6066 15.8723 16.3099 16.0911 16.0911C16.3099 15.8723 16.6066 15.7493 16.916 15.7493C17.2254 15.7493 17.5222 15.8723 17.741 16.0911C17.9598 16.3099 18.0827 16.6066 18.0827 16.916ZM12.2493 11.0827C12.2493 11.3921 12.1264 11.6888 11.9076 11.9076C11.6888 12.1264 11.3921 12.2493 11.0827 12.2493C10.7733 12.2493 10.4765 12.1264 10.2577 11.9076C10.0389 11.6888 9.91602 11.3921 9.91602 11.0827C9.91602 10.7733 10.0389 10.4765 10.2577 10.2577C10.4765 10.0389 10.7733 9.91602 11.0827 9.91602C11.3921 9.91602 11.6888 10.0389 11.9076 10.2577C12.1264 10.4765 12.2493 10.7733 12.2493 11.0827Z" fill="#181725"/>
</svg>
