<svg width="24" height="24" viewBox="0 0 24 24" fill="none" xmlns="http://www.w3.org/2000/svg">
<path d="M9.78175 3.88978C10.3458 3.40978 10.6278 3.16978 10.9218 3.02878C11.2585 2.86776 11.627 2.78418 12.0003 2.78418C12.3735 2.78418 12.742 2.86776 13.0788 3.02878C13.3738 3.16878 13.6558 3.40878 14.2188 3.88978C14.4438 4.08178 14.5558 4.17678 14.6758 4.25678C14.9506 4.44095 15.2592 4.56876 15.5838 4.63278C15.7248 4.66078 15.8718 4.67278 16.1658 4.69678C16.9048 4.75478 17.2738 4.78478 17.5818 4.89378C17.9335 5.01793 18.2531 5.21923 18.517 5.48294C18.7809 5.74664 18.9824 6.06606 19.1068 6.41778C19.2158 6.72678 19.2448 7.09578 19.3038 7.83378C19.3268 8.12778 19.3388 8.27478 19.3668 8.41678C19.4308 8.74078 19.5588 9.04978 19.7428 9.32378C19.8228 9.44378 19.9188 9.55578 20.1098 9.78078C20.5898 10.3448 20.8308 10.6268 20.9718 10.9208C21.1328 11.2575 21.2163 11.626 21.2163 11.9993C21.2163 12.3725 21.1328 12.741 20.9718 13.0778C20.8318 13.3718 20.5908 13.6538 20.1098 14.2178C19.9786 14.3628 19.856 14.5154 19.7428 14.6748C19.5587 14.9493 19.4309 15.2576 19.3668 15.5818C19.3388 15.7238 19.3268 15.8708 19.3038 16.1648C19.2448 16.9028 19.2158 17.2728 19.1068 17.5808C18.9824 17.9325 18.7809 18.2519 18.517 18.5156C18.2531 18.7793 17.9335 18.9806 17.5818 19.1048C17.2738 19.2148 16.9048 19.2438 16.1658 19.3018C15.8718 19.3258 15.7258 19.3378 15.5838 19.3658C15.2592 19.4298 14.9506 19.5576 14.6758 19.7418C14.5167 19.8551 14.3645 19.9776 14.2198 20.1088C13.6558 20.5888 13.3738 20.8288 13.0798 20.9698C12.743 21.1308 12.3745 21.2144 12.0013 21.2144C11.628 21.2144 11.2595 21.1308 10.9228 20.9698C10.6278 20.8298 10.3458 20.5898 9.78275 20.1088C9.63773 19.9776 9.48513 19.8551 9.32575 19.7418C9.05095 19.5576 8.74232 19.4298 8.41775 19.3658C8.22517 19.3331 8.03084 19.3117 7.83575 19.3018C7.09675 19.2438 6.72775 19.2138 6.41975 19.1048C6.06796 18.9806 5.74841 18.7793 5.48453 18.5156C5.22065 18.2519 5.01913 17.9325 4.89475 17.5808C4.78575 17.2728 4.75675 16.9028 4.69775 16.1648C4.68818 15.9694 4.66714 15.7747 4.63475 15.5818C4.57061 15.2576 4.44281 14.9493 4.25875 14.6748C4.17875 14.5548 4.08275 14.4428 3.89175 14.2178C3.41175 13.6538 3.17075 13.3718 3.02975 13.0778C2.86873 12.741 2.78516 12.3725 2.78516 11.9993C2.78516 11.626 2.86873 11.2575 3.02975 10.9208C3.17075 10.6268 3.41075 10.3448 3.89175 9.78078C4.08275 9.55578 4.17875 9.44378 4.25875 9.32378C4.44281 9.04927 4.57061 8.74099 4.63475 8.41678C4.66275 8.27478 4.67475 8.12778 4.69775 7.83378C4.75675 7.09578 4.78575 6.72678 4.89475 6.41778C5.01924 6.06596 5.22091 5.74647 5.48497 5.48276C5.74902 5.21905 6.06877 5.0178 6.42075 4.89378C6.72875 4.78478 7.09775 4.75478 7.83675 4.69678C8.13075 4.67278 8.27675 4.66078 8.41875 4.63278C8.74332 4.56876 9.05195 4.44095 9.32675 4.25678C9.44675 4.17678 9.55775 4.08178 9.78175 3.88978Z" stroke="#9E9E9E" stroke-width="1.5"/>
<path d="M9 15L15 9" stroke="#9E9E9E" stroke-width="1.5" stroke-linecap="round"/>
<path d="M15.5 14.5C15.5 14.7652 15.3946 15.0196 15.2071 15.2071C15.0196 15.3946 14.7652 15.5 14.5 15.5C14.2348 15.5 13.9804 15.3946 13.7929 15.2071C13.6054 15.0196 13.5 14.7652 13.5 14.5C13.5 14.2348 13.6054 13.9804 13.7929 13.7929C13.9804 13.6054 14.2348 13.5 14.5 13.5C14.7652 13.5 15.0196 13.6054 15.2071 13.7929C15.3946 13.9804 15.5 14.2348 15.5 14.5ZM10.5 9.5C10.5 9.76522 10.3946 10.0196 10.2071 10.2071C10.0196 10.3946 9.76522 10.5 9.5 10.5C9.23478 10.5 8.98043 10.3946 8.79289 10.2071C8.60536 10.0196 8.5 9.76522 8.5 9.5C8.5 9.23478 8.60536 8.98043 8.79289 8.79289C8.98043 8.60536 9.23478 8.5 9.5 8.5C9.76522 8.5 10.0196 8.60536 10.2071 8.79289C10.3946 8.98043 10.5 9.23478 10.5 9.5Z" fill="#9E9E9E"/>
</svg>
