<svg width="22" height="22" viewBox="0 0 22 22" fill="none" xmlns="http://www.w3.org/2000/svg">
<path d="M17.875 5.04134L17.3067 14.2309C17.1618 16.5785 17.0894 17.7528 16.5 18.597C16.209 19.0142 15.8344 19.3664 15.4 19.631C14.5227 20.1663 13.3467 20.1663 10.9945 20.1663C8.63867 20.1663 7.46075 20.1663 6.58167 19.6301C6.14706 19.3649 5.77245 19.0122 5.48167 18.5943C4.89317 17.7491 4.82167 16.573 4.6805 14.2218L4.125 5.04134M2.75 5.04134H19.25M14.718 5.04134L14.0919 3.75067C13.6767 2.89267 13.4686 2.46459 13.1102 2.19692C13.0305 2.13763 12.9462 2.0849 12.8581 2.03926C12.4612 1.83301 11.9845 1.83301 11.0321 1.83301C10.0549 1.83301 9.56633 1.83301 9.16208 2.04751C9.07272 2.09537 8.98749 2.15056 8.90725 2.21251C8.54517 2.49026 8.34258 2.93484 7.93742 3.82309L7.38192 5.04134M8.70833 15.1247V9.62467M13.2917 15.1247V9.62467" stroke="#6A6E7A" stroke-width="1.5" stroke-linecap="round" stroke-linejoin="round"/>
</svg>

