<svg width="20" height="26" viewBox="0 0 20 26" fill="none" xmlns="http://www.w3.org/2000/svg">
<path d="M6.04426 6.59012H13.9563M6.04426 11.7183H13.9563M6.04426 16.8465H11.319M0.769531 4.02602C0.769531 3.34597 1.0474 2.69378 1.542 2.21292C2.0366 1.73206 2.70742 1.46191 3.40689 1.46191H16.5937C17.2932 1.46191 17.964 1.73206 18.4586 2.21292C18.9532 2.69378 19.2311 3.34597 19.2311 4.02602V21.9747C19.2311 22.6548 18.9532 23.307 18.4586 23.7878C17.964 24.2687 17.2932 24.5388 16.5937 24.5388H3.40689C2.70742 24.5388 2.0366 24.2687 1.542 23.7878C1.0474 23.307 0.769531 22.6548 0.769531 21.9747V4.02602Z" stroke="#06844B" stroke-width="1.5" stroke-linecap="round" stroke-linejoin="round"/>
</svg>
