<svg width="28" height="28" viewBox="0 0 28 28" fill="none" xmlns="http://www.w3.org/2000/svg">
<path d="M14.0007 25.6663C20.444 25.6663 25.6673 20.443 25.6673 13.9997C25.6673 7.55635 20.444 2.33301 14.0007 2.33301C7.55733 2.33301 2.33398 7.55635 2.33398 13.9997C2.33398 20.443 7.55733 25.6663 14.0007 25.6663Z" stroke="#181725" stroke-width="1.5" stroke-linecap="round" stroke-linejoin="round"/>
<path d="M11.668 10.4999C11.6679 10.1374 11.7523 9.77977 11.9145 9.4555C12.0767 9.13123 12.3122 8.84922 12.6024 8.63185C12.8926 8.41448 13.2295 8.26772 13.5862 8.20323C13.943 8.13873 14.31 8.15827 14.6579 8.2603C15.0058 8.36232 15.3252 8.54403 15.5906 8.79099C15.8561 9.03795 16.0603 9.34338 16.1872 9.68304C16.314 10.0227 16.36 10.3873 16.3214 10.7478C16.2828 11.1083 16.1607 11.4548 15.9648 11.7599C15.2671 12.8449 14.0013 13.8786 14.0013 15.1666V15.7499M13.992 19.8333H14.0025" stroke="#181725" stroke-width="1.5" stroke-linecap="round" stroke-linejoin="round"/>
</svg>
