<svg width="24" height="24" viewBox="0 0 24 24" fill="none" xmlns="http://www.w3.org/2000/svg">
<path d="M1.59806 7.48749L1.59867 7.48638C1.8344 7.05535 2.17697 6.68202 2.75618 6.23834C3.34901 5.78423 4.1419 5.29108 5.26075 4.59629C5.26083 4.59625 5.2609 4.5962 5.26097 4.59615L7.59409 3.14846L7.59415 3.14842C8.77742 2.41404 9.61695 1.89405 10.3205 1.55187C11.0087 1.21719 11.5084 1.08301 12.0007 1.08301C12.4929 1.08301 12.9929 1.21722 13.6813 1.5519C14.3849 1.89403 15.2244 2.41402 16.407 3.14833L16.4072 3.14846L18.7403 4.59615C18.7404 4.59617 18.7404 4.59619 18.7404 4.59621C18.7405 4.59624 18.7405 4.59626 18.7405 4.59629C19.8595 5.29114 20.6526 5.78427 21.2456 6.23839C21.825 6.6821 22.1673 7.05526 22.4023 7.48584L22.4031 7.4872C22.6398 7.91882 22.7744 8.41836 22.8448 9.16568C22.9166 9.92822 22.9173 10.8885 22.9173 12.2377V14.0122C22.9173 16.3083 22.9158 17.9572 22.7527 19.212C22.592 20.4477 22.2865 21.1874 21.7608 21.731L21.7606 21.7312C21.239 22.2711 20.5341 22.5822 19.3512 22.7467C18.144 22.9146 16.5556 22.9163 14.334 22.9163H9.66732C7.44565 22.9163 5.85728 22.9146 4.65014 22.7467C3.46722 22.5822 2.76229 22.2711 2.24069 21.7312L2.24047 21.731C1.71485 21.1874 1.40933 20.4474 1.24864 19.2116C1.08548 17.9566 1.08398 16.3077 1.08398 14.0122V12.2365C1.08398 10.8879 1.08475 9.92764 1.15652 9.1651C1.22686 8.41769 1.36149 7.91833 1.59806 7.48749ZM10.3757 18.9997C10.3757 19.4307 10.5469 19.844 10.8516 20.1487C11.1564 20.4535 11.5697 20.6247 12.0007 20.6247C12.4316 20.6247 12.845 20.4535 13.1497 20.1487C13.4544 19.844 13.6257 19.4307 13.6257 18.9997V15.4997C13.6257 15.0687 13.4544 14.6554 13.1497 14.3506C12.845 14.0459 12.4316 13.8747 12.0007 13.8747C11.5697 13.8747 11.1564 14.0459 10.8516 14.3506C10.5469 14.6554 10.3757 15.0687 10.3757 15.4997V18.9997Z" stroke="#6A6E7A" stroke-width="1.5"/>
</svg>
