<svg width="24" height="24" viewBox="0 0 24 24" fill="none" xmlns="http://www.w3.org/2000/svg">
<path fill-rule="evenodd" clip-rule="evenodd" d="M0.939674 7.12651C0.333008 8.23134 0.333008 9.56717 0.333008 12.2365V14.0122C0.333008 18.5622 0.333008 20.8383 1.70034 22.2523C3.06651 23.6663 5.26684 23.6663 9.66634 23.6663H14.333C18.7325 23.6663 20.9328 23.6663 22.299 22.2523C23.6663 20.8383 23.6663 18.5633 23.6663 14.0122V12.2377C23.6663 9.56718 23.6663 8.23251 23.0597 7.12651C22.4553 6.01934 21.3482 5.33334 19.135 3.95901L16.8017 2.51117C14.4625 1.05867 13.2923 0.333008 11.9997 0.333008C10.707 0.333008 9.53801 1.05867 7.19767 2.51117L4.86434 3.95901C2.65117 5.33334 1.54517 6.01934 0.939674 7.12651ZM11.1247 18.9997C11.1247 19.2317 11.2169 19.4543 11.381 19.6184C11.5451 19.7825 11.7676 19.8747 11.9997 19.8747C12.2317 19.8747 12.4543 19.7825 12.6184 19.6184C12.7825 19.4543 12.8747 19.2317 12.8747 18.9997V15.4997C12.8747 15.2676 12.7825 15.0451 12.6184 14.881C12.4543 14.7169 12.2317 14.6247 11.9997 14.6247C11.7676 14.6247 11.5451 14.7169 11.381 14.881C11.2169 15.0451 11.1247 15.2676 11.1247 15.4997V18.9997Z" fill="#06844B"/>
</svg>
