<svg width="22" height="22" viewBox="0 0 22 22" fill="none" xmlns="http://www.w3.org/2000/svg">
<path d="M14.668 5.49967H7.33464M9.16797 9.16634H7.33464M3.66797 17.0918V7.38251C3.66797 4.76634 3.66797 3.45917 4.47372 2.64609C5.27855 1.83301 6.57564 1.83301 9.16797 1.83301H12.8346C15.427 1.83301 16.7241 1.83301 17.5289 2.64609C18.3346 3.45826 18.3346 4.76634 18.3346 7.38251V17.0918C18.3346 18.4769 18.3346 19.1699 17.9111 19.4431C17.2191 19.8886 16.1493 18.9536 15.6112 18.6144C15.1666 18.3339 14.9448 18.1946 14.6973 18.1863C14.4315 18.1772 14.2051 18.3119 13.7247 18.6144L11.973 19.719C11.5 20.0169 11.2644 20.1663 11.0013 20.1663C10.7382 20.1663 10.5026 20.0169 10.0296 19.719L8.2788 18.6144C7.8333 18.3339 7.61147 18.1946 7.36489 18.1863C7.09814 18.1772 6.87172 18.3119 6.39139 18.6144C5.8533 18.9536 4.78355 19.8886 4.09055 19.4431C3.66797 19.1699 3.66797 18.4778 3.66797 17.0918Z" stroke="#181725" stroke-width="1.5" stroke-linecap="round" stroke-linejoin="round"/>
<path d="M13.293 9.05208C12.534 9.05208 11.918 9.59108 11.918 10.2557C11.918 10.9193 12.534 11.4583 13.293 11.4583C14.052 11.4583 14.668 11.9973 14.668 12.6619C14.668 13.3256 14.052 13.8646 13.293 13.8646M13.293 9.05208C13.8916 9.05208 14.4012 9.38667 14.5901 9.85417M13.293 9.05208V8.25M13.293 13.8646C12.6944 13.8646 12.1847 13.53 11.9959 13.0625M13.293 13.8646V14.6667" stroke="#181725" stroke-width="1.5" stroke-linecap="round" stroke-linejoin="round"/>
</svg>
