<svg width="20" height="20" viewBox="0 0 20 20" fill="none" xmlns="http://www.w3.org/2000/svg">
<path d="M10 10.834C11.3807 10.834 12.5 9.7147 12.5 8.33398C12.5 6.95327 11.3807 5.83398 10 5.83398C8.61929 5.83398 7.5 6.95327 7.5 8.33398C7.5 9.7147 8.61929 10.834 10 10.834Z" stroke="#06844B" stroke-linecap="round" stroke-linejoin="round"/>
<path d="M10.0007 1.66699C8.23254 1.66699 6.53685 2.36937 5.28661 3.61961C4.03636 4.86986 3.33398 6.56555 3.33398 8.33366C3.33398 9.91033 3.66898 10.942 4.58398 12.0837L10.0007 18.3337L15.4173 12.0837C16.3323 10.942 16.6673 9.91033 16.6673 8.33366C16.6673 6.56555 15.9649 4.86986 14.7147 3.61961C13.4645 2.36937 11.7688 1.66699 10.0007 1.66699Z" stroke="#06844B" stroke-linecap="round" stroke-linejoin="round"/>
</svg>
