<svg width="28" height="28" viewBox="0 0 28 28" fill="none" xmlns="http://www.w3.org/2000/svg">
<path d="M14 15.166C15.933 15.166 17.5 13.599 17.5 11.666C17.5 9.73302 15.933 8.16602 14 8.16602C12.067 8.16602 10.5 9.73302 10.5 11.666C10.5 13.599 12.067 15.166 14 15.166Z" stroke="#181725" stroke-width="1.5" stroke-linecap="round" stroke-linejoin="round"/>
<path d="M13.9993 2.33301C11.524 2.33301 9.15003 3.31634 7.39969 5.06668C5.64935 6.81702 4.66602 9.19099 4.66602 11.6663C4.66602 13.8737 5.13502 15.318 6.41602 16.9163L13.9993 25.6663L21.5827 16.9163C22.8637 15.318 23.3327 13.8737 23.3327 11.6663C23.3327 9.19099 22.3494 6.81702 20.599 5.06668C18.8487 3.31634 16.4747 2.33301 13.9993 2.33301Z" stroke="#181725" stroke-width="1.5" stroke-linecap="round" stroke-linejoin="round"/>
</svg>
