<svg width="37" height="28" viewBox="0 0 37 28" fill="none" xmlns="http://www.w3.org/2000/svg">
<path d="M6.54821 27.861V26.0078C6.54821 25.2972 6.11569 24.834 5.37433 24.834C5.00371 24.834 4.60214 24.9575 4.32411 25.3591C4.10799 25.0193 3.79915 24.834 3.33581 24.834C3.02683 24.834 2.71812 24.9266 2.47091 25.2664V24.8958H1.82227V27.861H2.47091V26.2239C2.47091 25.6989 2.74894 25.4517 3.18146 25.4517C3.6137 25.4517 3.8301 25.7297 3.8301 26.2239V27.861H4.47875V26.2239C4.47875 25.6989 4.78745 25.4517 5.18902 25.4517C5.62154 25.4517 5.83766 25.7297 5.83766 26.2239V27.861H6.54821ZM16.1542 24.8958H15.1041V24.0001H14.4555V24.8958H13.8686V25.4825H14.4553V26.8417C14.4553 27.5213 14.7334 27.9227 15.4747 27.9227C15.7528 27.9227 16.0615 27.8301 16.2779 27.7066L16.0924 27.1506C15.9071 27.2741 15.691 27.305 15.5365 27.305C15.2276 27.305 15.1041 27.1197 15.1041 26.8108V25.4825H16.1542V24.8958ZM21.6523 24.8339C21.2817 24.8339 21.0346 25.0193 20.8801 25.2664V24.8958H20.2315V27.861H20.8801V26.1931C20.8801 25.6989 21.0963 25.4209 21.4978 25.4209C21.6214 25.4209 21.7759 25.4518 21.8994 25.4827L22.0847 24.865C21.9612 24.834 21.7759 24.834 21.6523 24.834M13.3435 25.143C13.0345 24.9267 12.6021 24.8341 12.1388 24.8341C11.3976 24.8341 10.9034 25.2048 10.9034 25.7916C10.9034 26.2859 11.274 26.5638 11.9227 26.6565L12.2315 26.6875C12.5713 26.7491 12.7566 26.8418 12.7566 26.9963C12.7566 27.2125 12.5095 27.367 12.077 27.367C11.6445 27.367 11.3048 27.2125 11.0886 27.0581L10.7797 27.5523C11.1195 27.7993 11.5829 27.9229 12.0461 27.9229C12.911 27.9229 13.4053 27.5214 13.4053 26.9654C13.4053 26.4403 13.0037 26.1622 12.3859 26.0697L12.077 26.0387C11.799 26.0078 11.5829 25.9461 11.5829 25.7608C11.5829 25.5446 11.799 25.421 12.1388 25.421C12.5095 25.421 12.8802 25.5754 13.0655 25.6681L13.3435 25.143ZM30.579 24.8341C30.2082 24.8341 29.9611 25.0195 29.8066 25.2665V24.8959H29.158V27.8611H29.8066V26.1932C29.8066 25.6991 30.0229 25.421 30.4243 25.421C30.548 25.421 30.7025 25.452 30.826 25.4828L31.0113 24.8651C30.8878 24.8341 30.7025 24.8341 30.579 24.8341ZM22.301 26.3785C22.301 27.2742 22.9186 27.9229 23.8763 27.9229C24.3087 27.9229 24.6175 27.8303 24.9263 27.5832L24.6175 27.0581C24.3704 27.2434 24.1234 27.336 23.8453 27.336C23.3202 27.336 22.9496 26.9654 22.9496 26.3785C22.9496 25.8226 23.3202 25.4518 23.8453 25.421C24.1234 25.421 24.3704 25.5136 24.6175 25.6991L24.9263 25.1739C24.6175 24.9267 24.3087 24.8341 23.8763 24.8341C22.9186 24.8341 22.301 25.4828 22.301 26.3785ZM28.2932 26.3785V24.8959H27.6446V25.2665C27.4283 24.9886 27.1195 24.8341 26.7179 24.8341C25.884 24.8341 25.2353 25.4828 25.2353 26.3785C25.2353 27.2742 25.884 27.9229 26.7179 27.9229C27.1503 27.9229 27.4593 27.7685 27.6446 27.4905V27.8611H28.2932V26.3785ZM25.9148 26.3785C25.9148 25.8534 26.2546 25.421 26.8105 25.421C27.3356 25.421 27.7064 25.8226 27.7064 26.3785C27.7064 26.9036 27.3356 27.336 26.8105 27.336C26.2546 27.305 25.9148 26.9036 25.9148 26.3785ZM18.162 24.8341C17.2971 24.8341 16.6793 25.4518 16.6793 26.3785C16.6793 27.3052 17.297 27.9229 18.1928 27.9229C18.6252 27.9229 19.0577 27.7993 19.3975 27.5214L19.0886 27.0581C18.8415 27.2434 18.5326 27.367 18.2238 27.367C17.8222 27.367 17.4207 27.1816 17.3279 26.6564H19.5211V26.4095C19.552 25.4518 18.9961 24.8341 18.162 24.8341ZM18.1619 25.3901C18.5633 25.3901 18.8415 25.6373 18.9031 26.1006H17.3587C17.4205 25.6991 17.6985 25.3901 18.1619 25.3901ZM34.2544 26.3785V23.7222H33.6058V25.2665C33.3895 24.9886 33.0807 24.8341 32.6791 24.8341C31.8452 24.8341 31.1965 25.4828 31.1965 26.3785C31.1965 27.2742 31.8452 27.9229 32.6791 27.9229C33.1116 27.9229 33.4205 27.7685 33.6058 27.4905V27.8611H34.2544V26.3785ZM31.8761 26.3785C31.8761 25.8534 32.2158 25.421 32.7718 25.421C33.2969 25.421 33.6675 25.8226 33.6675 26.3785C33.6675 26.9036 33.2969 27.336 32.7718 27.336C32.2158 27.305 31.8761 26.9036 31.8761 26.3785ZM10.1927 26.3785V24.8959H9.54407V25.2665C9.32781 24.9886 9.01897 24.8341 8.6174 24.8341C7.78345 24.8341 7.13481 25.4828 7.13481 26.3785C7.13481 27.2742 7.78345 27.9229 8.6174 27.9229C9.04992 27.9229 9.35877 27.7685 9.54407 27.4905V27.8611H10.1927V26.3785ZM7.78345 26.3785C7.78345 25.8534 8.12325 25.421 8.67917 25.421C9.20428 25.421 9.57503 25.8226 9.57503 26.3785C9.57503 26.9036 9.20428 27.336 8.67917 27.336C8.12325 27.305 7.78345 26.9036 7.78345 26.3785Z" fill="black"/>
<path d="M13.1289 2.37842H22.8586V19.861H13.1289V2.37842Z" fill="#FF5F00"/>
<path d="M13.7452 11.1197C13.7452 7.5676 15.4131 4.41697 17.9767 2.37831C16.0927 0.895719 13.7144 0 11.1198 0C4.97288 0 0 4.97288 0 11.1197C0 17.2664 4.97288 22.2393 11.1197 22.2393C13.7142 22.2393 16.0925 21.3436 17.9767 19.8609C15.4131 17.8532 13.7452 14.6717 13.7452 11.1197Z" fill="#EB001B"/>
<path d="M35.9845 11.1197C35.9845 17.2663 31.0116 22.2393 24.8649 22.2393C22.2703 22.2393 19.892 21.3436 18.0078 19.8609C20.6024 17.8224 22.2395 14.6717 22.2395 11.1197C22.2395 7.5676 20.5714 4.41697 18.0078 2.37831C19.8918 0.895719 22.2703 0 24.8649 0C31.0116 0 35.9845 5.00384 35.9845 11.1197Z" fill="#F79E1B"/>
</svg>
