<svg width="300" height="200" viewBox="0 0 300 200" fill="none" xmlns="http://www.w3.org/2000/svg">
<path d="M266.78 60.108L262.952 78.648L260.488 76.244L256.296 79.236L253.092 75.256L245.908 80.48L239.768 70.212L232.92 74.224L230.204 70.48L221.508 75.38L218.892 69.776L224.988 40.252L257.668 47L266.78 60.108Z" fill="#EBEBEB"/>
<path d="M257.668 47L266.78 60.108L255.444 57.768L257.668 47Z" fill="#DBDBDB"/>
<path d="M262.136 82.3524L256.524 109.552L212.504 100.464L218.076 73.4844L220.692 79.0844L229.392 74.1844L232.104 77.9284L238.956 73.9204L245.092 84.1884L252.28 78.9644L255.48 82.9404L259.676 79.9524L262.136 82.3524Z" fill="#EBEBEB"/>
<path d="M199.132 79.164L154.272 81.94L150.708 24.356L184.02 22.292L196.248 32.552L199.132 79.164Z" fill="#EBEBEB"/>
<path d="M184.02 22.292L196.248 32.552L184.696 33.268L184.02 22.292Z" fill="#DBDBDB"/>
<path d="M171.6 61.0396L171.424 59.7396C170.972 57.0476 171.708 54.0356 174.048 50.8876C176.16 48.0876 177.304 46.0876 177.176 43.8156C177.032 41.2556 175.332 39.6396 172.168 39.7676C170.36 39.8615 168.623 40.5032 167.188 41.6076L165.808 38.5156C167.408 37.2156 170.208 36.2556 172.868 36.1156C178.64 35.7956 181.448 39.2116 181.668 43.0236C181.86 46.4356 180.092 48.9996 177.844 51.9956C175.78 54.7276 175.104 56.9796 175.396 59.5276L175.52 60.8316L171.6 61.0396ZM170.888 68.1236C170.784 66.2676 171.964 64.8916 173.72 64.7956C175.476 64.6996 176.756 65.9316 176.86 67.7916C176.956 69.5476 175.88 70.9636 174.024 71.0676C172.252 71.1676 170.972 69.8796 170.872 68.1236H170.888Z" fill="#DBDBDB"/>
<path d="M59.3921 51.2442L54.8801 49.2002L54.2521 50.5802C54.1594 50.7774 54.0147 50.9457 53.8336 51.0669C53.6525 51.1881 53.4418 51.2577 53.2241 51.2682C52.9761 51.2763 52.729 51.3004 52.4841 51.3402C52.2692 51.3721 52.0496 51.3451 51.8488 51.2619C51.648 51.1788 51.4736 51.0427 51.3441 50.8682L50.4601 49.6322L46.4321 52.5202L47.3161 53.7562C47.4391 53.9346 47.5114 54.143 47.5255 54.3592C47.5396 54.5754 47.4949 54.7914 47.3961 54.9842C47.282 55.2042 47.1793 55.4298 47.0881 55.6602C47.0089 55.8634 46.8758 56.0411 46.7031 56.1743C46.5304 56.3075 46.3247 56.3911 46.1081 56.4162L44.6001 56.5642L45.0841 61.4962L46.6001 61.3442C46.8175 61.3268 47.0355 61.369 47.2308 61.4663C47.426 61.5636 47.591 61.7122 47.7081 61.8962C47.7721 62.0002 47.8401 62.1002 47.9121 62.2002C47.9841 62.3002 48.0561 62.3962 48.1321 62.4922C48.2701 62.6601 48.3589 62.8631 48.3886 63.0784C48.4182 63.2938 48.3876 63.5132 48.3001 63.7122L47.6681 65.1042L52.1841 67.1522L52.8121 65.7642C52.9057 65.5672 53.0512 65.3993 53.2331 65.2788C53.4149 65.1583 53.6262 65.0896 53.8441 65.0802C54.0893 65.0701 54.3337 65.046 54.5761 65.0082C54.791 64.9763 55.0106 65.0033 55.2114 65.0865C55.4122 65.1696 55.5866 65.3057 55.7161 65.4802L56.6001 66.7162L60.6321 63.8282L59.7481 62.5922C59.6214 62.4154 59.5467 62.2067 59.5325 61.9896C59.5184 61.7726 59.5654 61.5559 59.6681 61.3642C59.7795 61.1455 59.8797 60.9212 59.9681 60.6922C60.045 60.4875 60.1775 60.3084 60.3506 60.1748C60.5237 60.0413 60.7306 59.9587 60.9481 59.9362L62.4641 59.7842L61.9761 54.8522L60.4601 55.0002C60.244 55.0192 60.0269 54.978 59.8328 54.8813C59.6387 54.7846 59.4751 54.6361 59.3601 54.4522C59.2921 54.3482 59.2241 54.2482 59.1521 54.1482C59.0801 54.0482 59.0081 53.9482 58.9321 53.8562C58.795 53.6862 58.7069 53.482 58.6773 53.2656C58.6477 53.0492 58.6777 52.8288 58.7641 52.6282L59.3921 51.2442ZM56.8321 55.8082C57.2999 56.4609 57.5635 57.2378 57.5898 58.0404C57.616 58.843 57.4037 59.6354 56.9796 60.3173C56.5554 60.9992 55.9386 61.54 55.2071 61.8714C54.4756 62.2027 53.6623 62.3097 52.87 62.1787C52.0777 62.0478 51.342 61.6849 50.756 61.1358C50.17 60.5867 49.76 59.8762 49.5778 59.0941C49.3956 58.312 49.4495 57.4934 49.7326 56.7419C50.0156 55.9904 50.5152 55.3397 51.1681 54.8722C52.0434 54.2454 53.1318 53.9919 54.1939 54.1674C55.2561 54.3429 56.205 54.9331 56.8321 55.8082Z" fill="#EBEBEB"/>
<path d="M263.352 116.684L260.344 118.42L260.876 119.34C260.955 119.472 260.995 119.624 260.99 119.778C260.985 119.932 260.936 120.081 260.848 120.208C260.756 120.352 260.668 120.5 260.588 120.656C260.522 120.794 260.418 120.91 260.289 120.991C260.159 121.071 260.009 121.113 259.856 121.112H258.8V124.588H259.864C260.017 124.586 260.167 124.628 260.297 124.709C260.426 124.789 260.53 124.906 260.596 125.044C260.676 125.2 260.764 125.348 260.856 125.492C260.944 125.618 260.993 125.767 260.998 125.921C261.003 126.075 260.963 126.228 260.884 126.36L260.352 127.28L263.36 129.016L263.896 128.092C263.973 127.961 264.086 127.854 264.221 127.783C264.356 127.712 264.508 127.681 264.66 127.692H265.172C265.324 127.681 265.475 127.713 265.61 127.784C265.745 127.854 265.858 127.961 265.936 128.092L266.472 129.02L269.476 127.284L268.944 126.36C268.868 126.227 268.831 126.076 268.837 125.923C268.842 125.77 268.891 125.622 268.976 125.496C269.068 125.352 269.156 125.2 269.236 125.048C269.302 124.91 269.405 124.793 269.535 124.713C269.665 124.632 269.815 124.59 269.968 124.592H271.032V121.116H269.96C269.807 121.117 269.657 121.075 269.527 120.995C269.397 120.914 269.294 120.798 269.228 120.66C269.148 120.508 269.06 120.356 268.968 120.212C268.883 120.085 268.834 119.937 268.829 119.784C268.823 119.631 268.86 119.48 268.936 119.348L269.468 118.424L266.464 116.688L265.928 117.6C265.85 117.731 265.738 117.837 265.603 117.908C265.468 117.979 265.316 118.01 265.164 118H264.908H264.652C264.499 118.01 264.347 117.978 264.212 117.907C264.076 117.837 263.963 117.73 263.884 117.6L263.352 116.684ZM264.908 120.004C265.471 120.003 266.023 120.169 266.492 120.482C266.961 120.795 267.326 121.239 267.542 121.76C267.758 122.28 267.815 122.853 267.705 123.406C267.596 123.959 267.324 124.467 266.926 124.865C266.527 125.264 266.019 125.535 265.466 125.645C264.914 125.755 264.341 125.698 263.82 125.482C263.3 125.266 262.855 124.9 262.542 124.431C262.229 123.962 262.063 123.411 262.064 122.848C262.063 122.474 262.136 122.104 262.279 121.758C262.422 121.413 262.631 121.099 262.895 120.834C263.16 120.569 263.473 120.36 263.819 120.216C264.164 120.073 264.534 120 264.908 120V120.004Z" fill="#EBEBEB"/>
<path d="M68.5201 36.464L65.7641 38.576L66.4001 39.42C66.4949 39.5402 66.5533 39.6852 66.5682 39.8377C66.583 39.9901 66.5539 40.1436 66.4841 40.28C66.4075 40.4357 66.3407 40.596 66.2841 40.76C66.2348 40.9045 66.1461 41.0323 66.0281 41.1291C65.9101 41.2259 65.7674 41.2879 65.6161 41.308L64.5601 41.444L65.0081 44.888L66.0641 44.752C66.2178 44.7306 66.3744 44.753 66.516 44.8167C66.6575 44.8804 66.7782 44.9827 66.8641 45.112C66.9604 45.2511 67.0646 45.3847 67.1761 45.512C67.2791 45.6253 67.3475 45.7658 67.373 45.9169C67.3985 46.0679 67.3801 46.2231 67.3201 46.364L66.9201 47.348L70.1201 48.68L70.5201 47.696C70.5796 47.5548 70.6775 47.4332 70.8026 47.3448C70.9277 47.2564 71.0751 47.2049 71.2281 47.196L71.4841 47.168L71.7361 47.128C71.8841 47.1001 72.0369 47.1133 72.178 47.1662C72.319 47.2191 72.4429 47.3096 72.5361 47.428L73.1881 48.28L75.9441 46.168L75.3001 45.324C75.207 45.2021 75.1499 45.0566 75.1351 44.9039C75.1202 44.7513 75.1483 44.5975 75.2161 44.46C75.2919 44.3053 75.3587 44.1464 75.4161 43.984C75.4654 43.8395 75.554 43.7117 75.672 43.6149C75.79 43.5181 75.9327 43.4561 76.0841 43.436L77.1401 43.3L76.6921 39.856L75.6361 39.992C75.4827 40.0138 75.3264 39.992 75.1849 39.929C75.0434 39.8661 74.9225 39.7645 74.8361 39.636C74.7361 39.492 74.6321 39.356 74.5201 39.236C74.4269 39.1202 74.3666 38.9815 74.3455 38.8344C74.3243 38.6873 74.3432 38.5373 74.4001 38.4L74.8001 37.416L71.6001 36.084L71.2001 37.068C71.1398 37.2086 71.0417 37.3298 70.9167 37.418C70.7917 37.5063 70.6447 37.5582 70.4921 37.568L70.2361 37.592L70.0001 37.6C69.852 37.6279 69.6992 37.6147 69.5581 37.5618C69.4171 37.5089 69.2932 37.4183 69.2001 37.3L68.5201 36.464ZM70.4921 39.556C71.0493 39.4844 71.6152 39.5794 72.1184 39.829C72.6217 40.0786 73.0398 40.4717 73.3199 40.9587C73.6 41.4456 73.7296 42.0046 73.6924 42.5652C73.6552 43.1257 73.4528 43.6627 73.1108 44.1083C72.7687 44.554 72.3024 44.8884 71.7705 45.0693C71.2387 45.2502 70.6652 45.2695 70.1223 45.1249C69.5795 44.9802 69.0917 44.678 68.7204 44.2564C68.3491 43.8349 68.111 43.3127 68.0361 42.756C67.9861 42.3844 68.01 42.0067 68.1066 41.6444C68.2031 41.2822 68.3703 40.9426 68.5986 40.6452C68.8268 40.3478 69.1116 40.0985 69.4366 39.9116C69.7615 39.7246 70.1202 39.6038 70.4921 39.556Z" fill="#EBEBEB"/>
<path d="M47.9278 126.712C48.0781 122.845 48.0247 118.973 47.7678 115.112C47.1955 107.139 45.9795 99.2254 44.1318 91.4482C43.1158 87.0722 41.8678 82.7682 40.5638 78.4682C40.5238 78.3362 40.3158 78.3722 40.3518 78.5082C44.3798 93.6682 47.6838 109.308 47.4558 125.068C47.3918 129.468 46.8798 133.808 46.4638 138.192C46.4638 138.308 46.6438 138.356 46.6718 138.236C47.4998 134.472 47.7718 130.544 47.9278 126.712Z" fill="#EBEBEB"/>
<path d="M40.3519 78.4961C40.3519 78.4961 34.2559 93.9761 35.6199 97.6001C36.9839 101.224 39.7999 102 39.7999 102C39.7999 102 36.0679 107.328 38.6759 112.324C41.2839 117.32 47.0759 117.084 47.4759 122.748C47.4639 122.776 47.7839 99.0921 40.3519 78.4961Z" fill="#EBEBEB"/>
<path d="M46.8002 112.996C46.81 112.97 46.81 112.942 46.8002 112.916C46.0001 102.348 44.017 91.9022 40.8882 81.7759C40.8882 81.7479 40.8282 81.7559 40.8362 81.7759C42.0442 86.3093 43.1108 90.8613 44.0362 95.4319C43.2166 94.6555 42.2154 94.0972 41.1242 93.8079C41.1242 93.8079 41.0922 93.8319 41.1242 93.8399C42.2705 94.26 43.3013 94.9454 44.1322 95.8399C44.3082 96.7399 44.4842 97.6359 44.6482 98.5359C43.2842 97.0119 41.3962 96.2559 39.5042 95.5359C39.4999 95.5378 39.4962 95.5409 39.4937 95.5448C39.4911 95.5487 39.4897 95.5533 39.4897 95.5579C39.4897 95.5626 39.4911 95.5672 39.4937 95.5711C39.4962 95.575 39.4999 95.5781 39.5042 95.5799C41.4762 96.3799 43.4362 97.4119 44.7722 99.1119C45.2362 101.68 45.6442 104.257 45.9962 106.844C45.0113 105.812 43.7482 105.088 42.3602 104.76C42.3162 104.76 42.2922 104.812 42.3362 104.824C43.7621 105.244 45.0351 106.069 46.0002 107.2H46.0242C46.1442 108.107 46.2588 109.017 46.3682 109.932C45.6063 109.287 44.746 108.769 43.8202 108.396C43.7962 108.396 43.7802 108.424 43.8202 108.432C44.765 108.841 45.6303 109.414 46.3762 110.124C46.3762 110.124 46.3962 110.124 46.4082 110.124C46.5082 110.992 46.6082 111.86 46.6962 112.728C45.3226 111.067 43.54 109.794 41.5242 109.032C41.5157 109.032 41.5075 109.035 41.5015 109.041C41.4955 109.047 41.4922 109.055 41.4922 109.064C41.4922 109.072 41.4955 109.081 41.5015 109.087C41.5075 109.093 41.5157 109.096 41.5242 109.096C43.5147 109.973 45.2632 111.32 46.6202 113.02C46.6351 113.039 46.6552 113.052 46.678 113.059C46.7008 113.067 46.7253 113.067 46.7482 113.06C46.8802 114.392 47.0002 115.724 47.0962 117.06C47.0962 117.08 47.1282 117.08 47.1282 117.06C47.0242 115.719 46.9148 114.364 46.8002 112.996Z" fill="white"/>
<path d="M41.8999 92.2836C40.7959 91.5966 39.5347 91.2028 38.2359 91.1396C38.2295 91.1396 38.2234 91.1422 38.2189 91.1467C38.2144 91.1512 38.2119 91.1573 38.2119 91.1636C38.2119 91.17 38.2144 91.1761 38.2189 91.1806C38.2234 91.1851 38.2295 91.1876 38.2359 91.1876C39.4916 91.4258 40.7102 91.8293 41.8599 92.3876C41.9079 92.3996 41.9439 92.3156 41.8999 92.2836Z" fill="white"/>
<path d="M42.6398 108.672C41.7913 108.185 40.857 107.866 39.8878 107.732C39.8558 107.732 39.8518 107.776 39.8878 107.784C40.8342 107.974 41.7496 108.295 42.6078 108.736C42.6438 108.756 42.6758 108.692 42.6398 108.672Z" fill="white"/>
<path d="M63.9602 97.8682C61.3813 99.6508 59.0129 101.72 56.9002 104.036C54.7214 106.489 53.0408 109.342 51.9522 112.436C49.6353 118.883 48.3895 125.666 48.2642 132.516C48.1865 136.31 48.5502 140.099 49.3482 143.808C49.3546 143.835 49.3712 143.859 49.3945 143.874C49.4178 143.889 49.446 143.894 49.4732 143.889C49.5005 143.884 49.5247 143.869 49.5409 143.846C49.5571 143.824 49.564 143.796 49.5602 143.768C48.5673 137.223 48.6051 130.562 49.6722 124.028C50.7202 117.628 52.3642 110.66 56.4362 105.456C58.6522 102.62 61.4162 100.392 64.1482 98.0882C64.2922 97.9602 64.1082 97.7642 63.9602 97.8682Z" fill="#EBEBEB"/>
<path d="M49.1602 127.9C50.6281 125.526 52.3532 123.321 54.3042 121.324C57.3562 118.272 59.9242 116.104 60.3242 114.088C60.7242 112.072 57.2682 110.584 57.2682 110.584C57.2682 110.584 61.4882 111.344 62.6442 109.572C63.8002 107.8 64.3562 97.5361 64.3562 97.5361C64.3562 97.5361 56.6762 103.02 53.0962 110.708C49.5162 118.396 49.1602 127.9 49.1602 127.9Z" fill="#EBEBEB"/>
<path d="M61.5998 107.164C61.0941 107.089 60.5815 107.071 60.0718 107.112C60.0118 107.112 60.0158 107.216 60.0718 107.22C60.5758 107.22 61.0838 107.196 61.5878 107.22C61.5936 107.219 61.5988 107.216 61.6029 107.211C61.6071 107.207 61.6099 107.202 61.6112 107.196C61.6124 107.19 61.612 107.184 61.61 107.178C61.608 107.173 61.6045 107.168 61.5998 107.164Z" fill="white"/>
<path d="M56.0838 117.12C55.2728 117.137 54.4712 117.296 53.7158 117.592C53.7158 117.592 53.7158 117.632 53.7158 117.628C54.5158 117.44 55.2878 117.364 56.0798 117.228C56.0902 117.224 56.099 117.216 56.1054 117.207C56.1117 117.198 56.1153 117.187 56.1157 117.175C56.1161 117.164 56.1134 117.153 56.1077 117.143C56.1021 117.133 56.0938 117.125 56.0838 117.12Z" fill="white"/>
<path d="M54.4282 113.68C54.0915 113.677 53.7553 113.707 53.4242 113.768C53.4181 113.77 53.4128 113.774 53.409 113.78C53.4053 113.785 53.4033 113.791 53.4033 113.798C53.4033 113.804 53.4053 113.811 53.409 113.816C53.4128 113.821 53.4181 113.826 53.4242 113.828C53.7595 113.847 54.0959 113.832 54.4282 113.784C54.442 113.784 54.4552 113.778 54.465 113.769C54.4747 113.759 54.4802 113.746 54.4802 113.732C54.4802 113.718 54.4747 113.705 54.465 113.695C54.4552 113.685 54.442 113.68 54.4282 113.68Z" fill="white"/>
<path d="M26.6442 108.756C29.1439 109.604 31.5393 110.732 33.7842 112.12C36.1136 113.6 38.1336 115.519 39.7322 117.768C43.0958 122.45 45.6712 127.651 47.3562 133.164C48.296 136.217 48.876 139.369 49.0842 142.556C49.0799 142.577 49.0685 142.595 49.0522 142.609C49.0358 142.622 49.0153 142.629 48.9942 142.629C48.9732 142.629 48.9527 142.622 48.9363 142.609C48.9199 142.595 48.9086 142.577 48.9042 142.556C48.1982 137.03 46.6298 131.649 44.2562 126.608C41.9242 121.668 38.9842 116.412 34.4882 113.14C32.0402 111.36 29.2882 110.192 26.5442 108.96C26.4002 108.912 26.5002 108.708 26.6442 108.756Z" fill="#EBEBEB"/>
<path d="M45.564 129.64C43.8262 128.059 41.9202 126.673 39.88 125.508C36.704 123.744 34.124 122.584 33.336 121.044C32.548 119.504 35 117.504 35 117.504C35 117.504 31.76 119.104 30.416 117.924C29.072 116.744 26.248 108.584 26.248 108.584C26.248 108.584 33.732 111.244 38.4 116.64C43.068 122.036 45.564 129.64 45.564 129.64Z" fill="#EBEBEB"/>
<path d="M39.3523 122.128C38.6165 122.077 37.8776 122.168 37.1763 122.396C37.1763 122.396 37.1763 122.432 37.1763 122.428C37.8918 122.305 38.6148 122.231 39.3403 122.204C39.3923 122.204 39.4043 122.132 39.3523 122.128Z" fill="white"/>
<path d="M32.8241 113.568C32.4884 113.54 32.1506 113.559 31.8201 113.624C31.7841 113.624 31.7961 113.688 31.8201 113.684C32.1521 113.648 32.4761 113.66 32.8041 113.652C32.8143 113.652 32.8243 113.649 32.8324 113.643C32.8405 113.637 32.8463 113.628 32.8486 113.618C32.851 113.608 32.8498 113.598 32.8454 113.589C32.8409 113.579 32.8334 113.572 32.8241 113.568Z" fill="white"/>
<path d="M55.2162 152.872H38.3242L40.7322 135.228L41.3482 130.704H52.1922L52.8082 135.228L55.2162 152.872Z" fill="#DBDBDB"/>
<path d="M52.8079 135.228H40.7319L41.3479 130.704H52.1919L52.8079 135.228Z" fill="#C7C7C7"/>
<path d="M53.7399 129.136H39.7959V132.968H53.7399V129.136Z" fill="#DBDBDB"/>
<path d="M27.584 152.872L57.988 152.776L88.392 152.74L149.2 152.672L210.008 152.74L240.412 152.776L270.816 152.872L240.412 152.972L210.008 153.004L149.2 153.072L88.392 153.004L57.988 152.968L27.584 152.872Z" fill="#263238"/>
<path d="M150 182.684C213.345 182.684 264.696 177.057 264.696 170.116C264.696 163.175 213.345 157.548 150 157.548C86.6553 157.548 35.3042 163.175 35.3042 170.116C35.3042 177.057 86.6553 182.684 150 182.684Z" fill="#EBEBEB"/>
<path d="M123.3 168.036C122.368 168.352 95.6441 168.436 94.6201 167.804C94.2201 167.564 93.9921 163.672 93.8201 158.96C93.7841 157.944 93.7561 156.892 93.7321 155.828L91.6001 141.572L109.468 141.456L111.152 155.716L111.084 158.852C111.084 158.852 121.332 163.392 122.38 164.216C123.428 165.04 124.232 167.72 123.3 168.036Z" fill="#EB9481"/>
<path d="M123.3 168.036C122.368 168.352 95.6441 168.436 94.6201 167.804C94.1481 167.508 93.892 161.824 93.748 155.828L111.132 155.716L111.064 158.852C111.064 158.852 121.312 163.392 122.36 164.216C123.408 165.04 124.232 167.72 123.3 168.036Z" fill="white"/>
<path d="M123.3 168.037C122.368 168.353 95.6438 168.437 94.6198 167.805C94.2198 167.565 93.9918 163.673 93.8198 158.961L111.048 158.853C111.048 158.853 121.296 163.393 122.344 164.217C123.392 165.041 124.232 167.721 123.3 168.037Z" fill="#A6A6A6"/>
<path d="M122.912 166.968C118.432 166.872 100.352 166.916 95.9162 167.164C95.8802 167.164 95.8802 167.188 95.9162 167.192C100.356 167.38 118.436 167.192 122.912 167.04C123.008 167.036 123.008 166.968 122.912 166.968Z" fill="#263238"/>
<path d="M120.636 163.261C120.138 163.249 119.643 163.342 119.182 163.532C118.721 163.722 118.305 164.005 117.96 164.365C117.33 165.006 116.975 165.866 116.968 166.765C116.968 166.793 117.016 166.793 117.02 166.765C117.169 165.88 117.599 165.067 118.248 164.447C118.897 163.827 119.729 163.433 120.62 163.325C120.628 163.327 120.637 163.325 120.645 163.321C120.652 163.316 120.658 163.309 120.66 163.301C120.662 163.292 120.661 163.283 120.656 163.276C120.652 163.268 120.644 163.263 120.636 163.261Z" fill="#263238"/>
<path d="M112.8 159.292C111.008 159.272 108.932 159.912 107.82 161.384C107.78 161.44 107.86 161.5 107.912 161.472C109.478 160.646 111.127 159.989 112.832 159.512C112.858 159.505 112.881 159.489 112.896 159.466C112.911 159.443 112.917 159.415 112.913 159.388C112.909 159.361 112.896 159.337 112.875 159.319C112.854 159.301 112.827 159.292 112.8 159.292Z" fill="#263238"/>
<path d="M114.192 159.824C112.396 159.824 110.32 160.448 109.212 161.916C109.168 161.976 109.248 162.036 109.304 162.008C110.867 161.179 112.515 160.52 114.22 160.044C114.246 160.037 114.269 160.021 114.283 159.998C114.298 159.976 114.305 159.949 114.301 159.922C114.298 159.895 114.285 159.871 114.265 159.853C114.245 159.835 114.219 159.825 114.192 159.824Z" fill="#263238"/>
<path d="M115.576 160.36C113.784 160.36 111.708 160.98 110.596 162.452C110.556 162.508 110.636 162.568 110.688 162.54C112.253 161.714 113.903 161.057 115.608 160.58C115.634 160.573 115.657 160.557 115.672 160.534C115.687 160.511 115.693 160.483 115.689 160.456C115.685 160.429 115.671 160.405 115.651 160.387C115.63 160.369 115.603 160.36 115.576 160.36Z" fill="#263238"/>
<path d="M116.964 160.896C115.168 160.876 113.092 161.516 111.984 162.988C111.94 163.044 112.024 163.104 112.076 163.076C113.641 162.249 115.291 161.592 116.996 161.116C117.022 161.109 117.045 161.092 117.06 161.069C117.075 161.046 117.081 161.019 117.077 160.992C117.073 160.965 117.06 160.94 117.039 160.922C117.018 160.905 116.991 160.895 116.964 160.896Z" fill="#263238"/>
<path d="M97.0439 162.904C95.0439 162.904 95.0439 166.044 97.0439 166.032C99.0439 166.02 99.0599 162.892 97.0439 162.904Z" fill="#263238"/>
<path d="M114.724 154.5C113.816 153.748 112.672 154.5 112.116 155.272C111.191 156.637 110.639 158.22 110.516 159.864C110.516 159.9 110.544 159.916 110.572 159.916C110.579 159.95 110.594 159.982 110.616 160.009C110.638 160.036 110.666 160.057 110.698 160.07C110.73 160.084 110.764 160.09 110.799 160.088C110.833 160.085 110.867 160.074 110.896 160.056C112.168 159.172 113.64 158.38 114.604 157.128C115.152 156.4 115.6 155.2 114.724 154.5ZM112.54 158.316C111.924 158.768 111.288 159.188 110.688 159.664C111.008 158.768 111.284 157.864 111.692 157C111.881 156.586 112.097 156.185 112.34 155.8C112.74 155.204 114.484 153.7 114.668 155.648C114.772 156.716 113.272 157.78 112.54 158.316Z" fill="#263238"/>
<path d="M106.052 160.544C107.612 160.776 109.224 160.328 110.756 160.084C110.79 160.075 110.82 160.059 110.846 160.036C110.872 160.014 110.892 159.985 110.905 159.953C110.918 159.922 110.923 159.887 110.92 159.853C110.917 159.819 110.906 159.785 110.888 159.756C110.894 159.752 110.899 159.746 110.902 159.739C110.905 159.733 110.907 159.726 110.907 159.718C110.907 159.711 110.905 159.704 110.902 159.697C110.899 159.69 110.894 159.685 110.888 159.68C109.657 158.582 108.159 157.828 106.544 157.492C105.6 157.312 104.264 157.572 104.144 158.744C104 159.848 105.14 160.4 106.052 160.544ZM104.964 159.528C103.764 157.992 106.056 157.86 106.744 158.02C107.191 158.132 107.629 158.273 108.056 158.444C108.931 158.807 109.787 159.214 110.62 159.664C109.86 159.74 109.112 159.876 108.356 159.98C107.452 160.1 105.636 160.372 104.964 159.528Z" fill="#263238"/>
<path d="M65.3281 75.6807C65.3281 75.6807 86.0761 110.977 86.6321 113.457C87.4841 117.265 92.0001 154.869 92.0001 154.869L113.6 154.469C113.6 154.469 109.88 121.313 106.356 110.389C103.82 102.521 85.5081 76.4247 85.5081 76.4247L65.3281 75.6807Z" fill="#37474F"/>
<path d="M111.636 151.172C108.536 151.148 97.548 151.024 93.42 151.408C93.388 151.408 93.392 151.464 93.42 151.468C94.84 151.672 108.532 151.356 111.632 151.256C111.638 151.258 111.645 151.259 111.652 151.258C111.659 151.257 111.666 151.255 111.671 151.251C111.677 151.247 111.682 151.242 111.685 151.236C111.689 151.23 111.691 151.224 111.691 151.217C111.691 151.21 111.69 151.203 111.687 151.197C111.684 151.19 111.68 151.185 111.675 151.18C111.669 151.176 111.663 151.173 111.656 151.172C111.65 151.17 111.643 151.17 111.636 151.172Z" fill="#263238"/>
<path d="M68.8678 78.9201C70.2278 81.0521 71.6678 83.1401 73.0518 85.2561C74.4358 87.3721 75.8278 89.4881 77.1998 91.6001C79.9358 95.8668 82.6025 100.161 85.1998 104.484C86.4674 106.488 87.5518 108.602 88.4398 110.8C89.2504 112.999 89.8596 115.267 90.2598 117.576C90.6838 119.892 90.9638 122.232 91.2238 124.572C91.4905 127.06 91.7692 129.549 92.0598 132.04C92.6278 137.136 93.1972 142.232 93.7678 147.328C93.8358 147.952 93.9038 148.576 93.9678 149.204C93.9678 149.296 93.8118 149.312 93.7998 149.204C93.1638 144.144 92.6358 139.064 92.0598 134.004C91.7718 131.479 91.4852 128.955 91.1998 126.432C90.9318 124.084 90.6758 121.732 90.3118 119.4C89.9778 117.098 89.4697 114.825 88.7918 112.6C88.0449 110.296 87.0441 108.083 85.8078 106C83.3078 101.684 80.6598 97.4441 78.0118 93.2001C75.3638 88.9561 72.6438 84.6762 69.8518 80.4842C69.5078 79.9682 69.1598 79.4521 68.7998 78.9441C68.7718 78.9161 68.8438 78.8801 68.8678 78.9201Z" fill="#263238"/>
<path d="M72.128 170.116C71.144 170.056 45.728 159.76 45.024 158.784C44.9926 158.726 44.9787 158.661 44.984 158.596C44.984 157.72 46.748 154.664 48.22 150.648C48.312 150.392 48.968 149.2 49.876 147.596C52.4 143.2 56.8 135.628 56.8 135.628L73.412 142.228L65.46 154.128L64.224 157.008C64.224 157.008 72.02 165.068 72.676 166.208C73.332 167.348 73.108 170.172 72.128 170.116Z" fill="#EB9481"/>
<path d="M72.128 170.116C71.144 170.056 45.728 159.76 45.024 158.784C44.9926 158.726 44.9787 158.661 44.984 158.596C44.984 157.72 46.748 154.664 48.22 150.648C48.312 150.392 48.968 149.2 49.876 147.596L65.476 154.128L64.24 157.008C64.24 157.008 72.036 165.068 72.692 166.208C73.348 167.348 73.108 170.172 72.128 170.116Z" fill="white"/>
<path d="M72.128 170.116C71.144 170.056 45.728 159.76 45.024 158.784C44.752 158.412 45.888 154.944 48.224 150.648L64.224 157.012C64.224 157.012 72.02 165.064 72.68 166.212C73.34 167.36 73.108 170.172 72.128 170.116Z" fill="#A6A6A6"/>
<path d="M72.1681 168.98C68.0521 167.212 51.2761 160.468 47.0721 159.036C47.0361 159.036 47.0281 159.036 47.0721 159.06C51.1161 160.9 67.9441 167.508 72.1521 169.06C72.2321 169.08 72.2561 169.016 72.1681 168.98Z" fill="#263238"/>
<path d="M71.4478 164.688C70.9914 164.487 70.4984 164.384 69.9998 164.384C69.5013 164.384 69.0083 164.487 68.5518 164.688C67.7312 165.047 67.0807 165.709 66.7358 166.536C66.7358 166.56 66.7718 166.58 66.7838 166.556C67.2554 165.789 67.9628 165.195 68.8001 164.864C69.6373 164.533 70.5593 164.483 71.4278 164.72C71.4346 164.718 71.4403 164.714 71.444 164.708C71.4477 164.702 71.4491 164.695 71.4478 164.688Z" fill="#263238"/>
<path d="M65.676 158.072C64.024 157.38 61.856 157.196 60.276 158.144C60.216 158.18 60.276 158.264 60.328 158.26C62.0894 158.081 63.8647 158.091 65.624 158.288C65.6511 158.291 65.6783 158.284 65.7006 158.268C65.7229 158.252 65.7387 158.229 65.745 158.203C65.7514 158.176 65.7479 158.148 65.7352 158.124C65.7225 158.1 65.7015 158.082 65.676 158.072Z" fill="#263238"/>
<path d="M66.76 159.089C65.108 158.397 62.94 158.213 61.36 159.161C61.3 159.197 61.36 159.281 61.412 159.277C63.1732 159.096 64.9488 159.105 66.708 159.305C66.7351 159.307 66.7623 159.3 66.7846 159.285C66.8069 159.269 66.8227 159.246 66.829 159.219C66.8354 159.193 66.8319 159.165 66.8192 159.141C66.8065 159.117 66.7855 159.098 66.76 159.089Z" fill="#263238"/>
<path d="M67.8478 160.104C66.1918 159.412 64.0238 159.228 62.4478 160.176C62.3838 160.212 62.4478 160.296 62.4958 160.292C64.2571 160.111 66.0326 160.121 67.7918 160.32C67.8194 160.325 67.8478 160.319 67.8713 160.304C67.8948 160.288 67.9117 160.265 67.9188 160.238C67.9258 160.211 67.9224 160.182 67.9093 160.157C67.8961 160.132 67.8742 160.114 67.8478 160.104Z" fill="#263238"/>
<path d="M68.9318 161.12C67.2758 160.428 65.1118 160.244 63.5318 161.188C63.4678 161.228 63.5318 161.312 63.5798 161.308C65.341 161.128 67.1166 161.137 68.8758 161.336C68.9034 161.341 68.9318 161.335 68.9553 161.32C68.9788 161.305 68.9957 161.281 69.0027 161.254C69.0098 161.227 69.0064 161.198 68.9933 161.173C68.9801 161.149 68.9582 161.13 68.9318 161.12Z" fill="#263238"/>
<path d="M49.7118 155.508C47.8438 154.764 46.6838 157.672 48.5598 158.416C50.4358 159.16 51.5998 156.252 49.7118 155.508Z" fill="#263238"/>
<path d="M69.2562 154.353C68.6922 153.317 67.3602 153.573 66.5482 154.089C65.1804 155.005 64.077 156.264 63.3482 157.741C63.345 157.747 63.3433 157.754 63.3433 157.761C63.3432 157.769 63.3448 157.776 63.3478 157.782C63.3509 157.789 63.3554 157.795 63.361 157.799C63.3666 157.804 63.3732 157.807 63.3802 157.809C63.3802 157.941 63.4682 158.097 63.6242 158.065C65.1402 157.717 66.8002 157.537 68.1602 156.737C68.9402 156.273 69.7882 155.333 69.2562 154.353ZM65.7962 157.069C65.0562 157.257 64.3122 157.409 63.5802 157.625C64.1857 156.895 64.8279 156.197 65.5042 155.533C65.8372 155.216 66.1914 154.922 66.5642 154.653C67.1442 154.253 69.3362 153.513 68.7762 155.389C68.4682 156.425 66.6802 156.845 65.7962 157.069Z" fill="#263238"/>
<path d="M58.9479 156.701C60.3079 157.501 61.9679 157.689 63.4799 158.041C63.6359 158.077 63.7399 157.921 63.7279 157.785C63.7354 157.784 63.7426 157.781 63.7487 157.777C63.7549 157.772 63.7598 157.766 63.763 157.76C63.7662 157.753 63.7676 157.745 63.7671 157.738C63.7666 157.73 63.7641 157.723 63.7599 157.717C63.0323 156.237 61.9288 154.975 60.5599 154.057C59.7599 153.537 58.4199 153.277 57.8519 154.309C57.2839 155.341 58.1519 156.233 58.9479 156.701ZM58.3239 155.349C57.7679 153.473 59.9559 154.217 60.5359 154.621C60.9084 154.89 61.2612 155.185 61.5919 155.505C62.267 156.17 62.9078 156.87 63.5119 157.601C62.7799 157.385 62.0359 157.229 61.2959 157.041C60.3999 156.801 58.6279 156.401 58.3239 155.349Z" fill="#263238"/>
<path d="M66.7518 153.465L48.1558 145.957C48.1558 145.957 71.2118 112.057 71.3798 109.533C71.5318 107.301 61.4038 87.8526 61.0078 82.1846C60.5758 76.0646 63.5198 71.3326 66.7598 68.3926L85.9398 76.5486C85.9398 76.5486 83.9158 79.7846 80.7398 81.5886C80.7398 81.5886 90.5758 104.069 90.0158 110.981C89.4558 117.893 66.7518 153.465 66.7518 153.465Z" fill="#37474F"/>
<path d="M67.576 149.928C64.888 148.772 65.676 149.064 62.972 147.928C61.652 147.376 52.972 143.764 51.636 143.464C51.608 143.464 51.588 143.504 51.616 143.52C52.772 144.228 61.524 147.688 62.856 148.216C65.58 149.288 64.808 148.952 67.544 149.992C67.5481 149.997 67.5535 150.002 67.5598 150.004C67.566 150.007 67.5728 150.008 67.5796 150.008C67.5864 150.007 67.5929 150.005 67.5986 150.001C67.6042 149.997 67.6088 149.992 67.6118 149.986C67.6149 149.98 67.6163 149.973 67.616 149.966C67.6157 149.959 67.6136 149.953 67.6101 149.947C67.6065 149.941 67.6015 149.936 67.5955 149.933C67.5896 149.93 67.5828 149.928 67.576 149.928Z" fill="#263238"/>
<path d="M83.8838 81.1762C81.8869 81.6416 79.9333 82.2759 78.0438 83.0722C78.0362 83.0748 78.0292 83.0789 78.0231 83.0842C78.0171 83.0896 78.0122 83.0961 78.0086 83.1033C78.0051 83.1106 78.003 83.1184 78.0026 83.1265C78.0021 83.1345 78.0032 83.1426 78.0058 83.1502C78.0084 83.1578 78.0125 83.1648 78.0179 83.1709C78.0232 83.1769 78.0297 83.1818 78.0369 83.1853C78.0442 83.1889 78.052 83.1909 78.0601 83.1914C78.0681 83.1919 78.0762 83.1908 78.0838 83.1882C80.0438 82.6162 82.0358 82.0802 83.9638 81.4042C84.1118 81.3522 84.0358 81.1442 83.8838 81.1762Z" fill="#263238"/>
<path d="M81.6 80.3998C81.4136 80.7313 81.2492 81.0747 81.108 81.4278C80.9699 81.6957 80.8844 81.9877 80.856 82.2878C80.856 82.3478 80.936 82.3598 80.972 82.3238C81.1726 82.0837 81.3346 81.8138 81.452 81.5238C81.616 81.2078 81.784 80.8958 81.94 80.5718C82.048 80.3358 81.724 80.1838 81.6 80.3998Z" fill="#263238"/>
<path d="M81.8401 78.5838C81.9601 78.2878 82.0761 77.9958 82.2001 77.6998C82.3241 77.4038 82.4801 77.0998 82.6001 76.7878C82.6001 76.7398 82.6961 76.7878 82.6761 76.8238C82.5561 77.1198 82.4801 77.4318 82.3881 77.7358C82.2961 78.0398 82.1921 78.3438 82.0921 78.6478C81.9041 79.2118 81.6921 79.7718 81.4321 80.3198C81.7469 80.3355 82.0612 80.2808 82.3521 80.1598C82.6493 79.9696 82.8778 79.6892 83.0041 79.3598C83.1721 79.0318 83.3281 78.6958 83.5001 78.3678C83.7118 78.0132 83.8899 77.6395 84.0321 77.2518C84.0321 77.2038 84.1281 77.2518 84.1081 77.2878C83.8473 78.1076 83.5056 78.8995 83.0881 79.6518C82.9081 79.9438 82.7681 80.2518 82.4401 80.3638C82.0851 80.4631 81.7135 80.4889 81.3481 80.4398C81.3001 80.4398 81.2441 80.4398 81.2601 80.3678C81.4239 79.7639 81.6175 79.1685 81.8401 78.5838Z" fill="#263238"/>
<path d="M81.0238 82.3199C81.7078 83.7639 82.3078 85.2039 82.9438 86.6439C83.5798 88.0839 84.1438 89.4759 84.7158 90.9079C85.8598 93.7959 86.8838 96.7399 87.7838 99.7079C88.2278 101.18 88.6398 102.664 89.0078 104.16C89.4131 105.651 89.7099 107.17 89.8958 108.704C90.0563 110.235 89.9205 111.784 89.4958 113.264C89.0546 114.727 88.4886 116.15 87.8038 117.516C87.3838 118.38 87.2438 118.264 87.4438 117.828C88.0158 116.588 89.5158 112.832 89.4078 109.676C89.3203 108.165 89.0872 106.666 88.7118 105.2C88.3625 103.688 87.9691 102.188 87.5318 100.7C86.6798 97.7639 85.6678 94.8879 84.6278 92.0159C84.0438 90.4159 83.4278 88.8159 82.8278 87.2159C82.2278 85.6159 81.6278 84.1439 80.9558 82.3759C80.9358 82.3039 81.0038 82.2759 81.0238 82.3199Z" fill="#263238"/>
<path d="M66.9079 77.5482C67.2399 77.4242 67.7079 77.6283 68.0439 77.6843C68.4791 77.7581 68.9188 77.8022 69.3599 77.8162C69.7964 77.8316 70.2334 77.8169 70.6679 77.7722C71.1055 77.761 71.5343 77.6473 71.9199 77.4403C72.5527 76.9793 73.0951 76.4057 73.5199 75.7482C74.0262 75.0764 74.4443 74.3424 74.7639 73.5643C74.7639 73.5163 74.8479 73.5643 74.8319 73.5963C74.6919 74.0403 74.5879 74.4882 74.4319 74.9242C74.2595 75.3339 74.0534 75.7286 73.8159 76.1042C73.4308 76.8602 72.8612 77.5068 72.1599 77.9843C71.3879 78.4243 70.3959 78.3842 69.5359 78.3482C69.0371 78.3192 68.5412 78.2537 68.0519 78.1523C67.6999 78.0763 67.1079 78.0202 66.8839 77.7122C66.8734 77.7005 66.8656 77.6865 66.861 77.6714C66.8565 77.6562 66.8553 77.6403 66.8576 77.6246C66.8599 77.609 66.8656 77.5941 66.8743 77.5809C66.883 77.5677 66.8945 77.5565 66.9079 77.5482Z" fill="#263238"/>
<path d="M53.4639 142.4C56.5199 137.771 59.5199 133.104 62.464 128.4C65.4079 123.696 68.3119 118.956 71.1759 114.18C71.8599 113.04 72.6479 111.904 73.0879 110.64C73.5679 109.268 73.2959 107.936 72.864 106.592C72.0482 104.14 71.0947 101.737 70.0079 99.3922C68.936 97.0282 67.7799 94.7042 66.6439 92.3722C65.5079 90.0402 64.3199 87.7362 63.4439 85.3042C62.6439 82.9802 62.3199 80.5722 62.9439 78.1642C63.5679 75.7562 64.9119 73.6282 66.3159 71.6242C66.6839 71.0962 67.0639 70.5722 67.4359 70.0242C67.4639 69.9842 67.524 70.0242 67.496 70.0722C65.948 72.1602 64.4399 74.3722 63.5319 76.8242C63.0679 78.0328 62.8083 79.3103 62.7639 80.6042C62.7564 81.9176 62.9603 83.2236 63.3679 84.4722C64.1199 86.9042 65.3079 89.2042 66.4159 91.4922C67.5239 93.7802 68.7079 96.1482 69.7999 98.5042C70.9265 100.875 71.9279 103.304 72.7999 105.78C73.1719 106.88 73.5999 108.032 73.5679 109.212C73.5399 110.504 72.924 111.668 72.284 112.756C69.484 117.496 66.616 122.18 63.696 126.836C60.776 131.492 57.7719 136.148 54.7319 140.756L53.5799 142.496C53.5199 142.568 53.4159 142.484 53.4639 142.4Z" fill="#263238"/>
<path d="M87.0038 54.9877C88.7358 58.7877 97.4838 64.0237 101.58 64.5877C104.524 64.9877 113.476 65.1317 116.544 64.6637C120.144 64.1117 117.392 54.4117 115.268 54.6637C109.428 55.3437 104.468 56.1037 102.908 56.1037C101.004 56.1037 90.7038 52.7997 89.4638 52.3317C86.4238 51.1997 86.0238 52.8317 87.0038 54.9877Z" fill="#EB9481"/>
<path d="M87.0601 56.0007C89.2521 59.2447 96.5361 64.5487 96.5361 64.5487L97.5481 62.3087L100.896 54.9007C100.896 54.9007 94.2041 52.8007 89.8001 51.8407C89.2818 51.7227 88.7547 51.6478 88.2241 51.6167C85.4121 51.4647 85.1681 53.2007 87.0601 56.0007Z" fill="#06844B"/>
<path d="M87.0601 56.0004C89.2521 59.2444 96.5361 64.5484 96.5361 64.5484L97.5481 62.3085C94.8321 59.1525 90.6361 54.3724 88.2241 51.6244C85.4121 51.4644 85.1681 53.2004 87.0601 56.0004Z" fill="#263238"/>
<path d="M95.2241 63.0443C95.7801 61.6803 98.2521 56.1883 98.8681 55.0443C98.9081 54.9643 98.9721 54.9723 98.9361 55.0443C97.8638 57.7755 96.6433 60.4461 95.2801 63.0443C95.2641 63.0923 95.2001 63.0763 95.2241 63.0443Z" fill="#263238"/>
<path d="M114.196 54.7639C117.748 54.2999 122.144 53.5039 125.868 55.0839C126.286 55.2479 126.637 55.5481 126.864 55.9359C128.544 56.6159 128.728 57.6119 128.728 57.6119C130.1 58.7239 130.148 59.7719 130.148 59.7719C130.148 59.7719 132.116 60.5719 131.816 61.8599C131.488 63.2839 128.792 61.8599 126.832 61.9759C122.332 62.2559 116.032 63.9079 114.732 64.1159L114.196 54.7639Z" fill="#EB9481"/>
<path d="M121.912 58.9565C123.228 58.8666 124.548 58.8666 125.864 58.9565C127.297 59.1363 128.714 59.4238 130.104 59.8165C130.113 59.8197 130.123 59.8192 130.131 59.8151C130.14 59.8109 130.147 59.8036 130.15 59.7945C130.153 59.7855 130.152 59.7756 130.148 59.767C130.144 59.7584 130.137 59.7517 130.128 59.7485C127.517 58.7242 124.675 58.4364 121.912 58.9165C121.848 58.9085 121.848 58.9605 121.912 58.9565Z" fill="#263238"/>
<path d="M121.076 54.8001C123.272 54.9121 124.644 55.2641 126.852 55.9281V55.9041C124.42 54.8881 123.424 54.7921 121.064 54.7041C120.988 54.7361 120.992 54.8001 121.076 54.8001Z" fill="#263238"/>
<path d="M121.432 62.6562C120.86 62.9243 121 63.2243 122.092 63.4763C123.184 63.7283 127.724 63.8043 127.564 65.3883C127.404 66.9723 121 66.7722 119.212 66.2122C117.424 65.6522 114.732 64.1162 114.732 64.1162C116 63.9042 118.976 63.1003 121.432 62.6562Z" fill="#EB9481"/>
<path d="M91.76 61.0437C91.732 61.7277 91.668 62.4237 91.572 63.1157C91.572 63.0877 91.572 63.0637 91.6 63.0397C91.732 62.6797 91.864 62.3117 92.024 61.9637C92.024 61.9637 92.064 61.9637 92.06 61.9637C91.9831 62.3451 91.8678 62.7176 91.716 63.0757C91.644 63.2477 91.576 63.4157 91.5 63.5837C91.452 63.8917 91.396 64.1957 91.336 64.4997C91.216 65.0717 90.676 67.5037 90.536 67.9157C90.512 67.9997 90.408 67.9797 90.416 67.8837C90.444 67.4357 90.896 64.9037 90.988 64.3277C91.1667 63.2156 91.4057 62.114 91.704 61.0277C91.724 61.0077 91.764 61.0237 91.76 61.0437Z" fill="#263238"/>
<path d="M87.5999 79.2321C86.5319 79.7801 85.1559 80.6321 78.9559 79.4121C78.5559 79.3321 78.1799 79.2361 77.7879 79.1201C71.9759 77.3761 64.9879 70.5401 64.6079 70.0561C64.6079 70.0561 73.8439 55.0841 85.6559 50.3761C87.1159 49.7961 89.5319 50.9161 90.8559 52.3121C91.3319 52.8121 92.3679 56.4881 91.9719 59.4641C91.5759 62.4401 88.6639 78.6841 87.5999 79.2321Z" fill="#06844B"/>
<path d="M86.768 59.3281C86.8126 59.9608 86.724 60.5958 86.508 61.1921C86.4573 60.5592 86.546 59.923 86.768 59.3281Z" fill="white"/>
<path d="M82.7402 69.5244C82.7657 69.8393 82.7549 70.156 82.7082 70.4684C82.6697 70.7832 82.5931 71.0921 82.4802 71.3884C82.4527 71.0723 82.4634 70.754 82.5122 70.4404C82.5531 70.1274 82.6296 69.8201 82.7402 69.5244Z" fill="white"/>
<path d="M75.8962 61.8164C75.9413 62.4504 75.8527 63.0868 75.6362 63.6844C75.586 63.0502 75.6747 62.4127 75.8962 61.8164Z" fill="white"/>
<path d="M89.4038 69.0039C89.4293 69.3201 89.4186 69.6382 89.3718 69.9519C89.3333 70.2667 89.2567 70.5756 89.1438 70.8719C89.1162 70.5558 89.127 70.2375 89.1758 69.9239C89.2162 69.6095 89.2927 69.3008 89.4038 69.0039Z" fill="white"/>
<path d="M80.6162 60.4963C80.9309 60.4695 81.2476 60.4789 81.5602 60.5243C81.8751 60.5642 82.184 60.6421 82.4802 60.7563C81.8475 60.8018 81.2123 60.7132 80.6162 60.4963Z" fill="white"/>
<path d="M72.8481 67.8599C73.4808 67.8153 74.1158 67.9038 74.7121 68.1199C74.0793 68.1706 73.443 68.0818 72.8481 67.8599Z" fill="white"/>
<path d="M82 75.8319C82.6327 75.7865 83.2679 75.875 83.864 76.0919C83.2312 76.1418 82.595 76.0531 82 75.8319Z" fill="white"/>
<path d="M70.4521 72.936C71.0848 72.8914 71.7198 72.98 72.3161 73.196C71.6833 73.246 71.0472 73.1572 70.4521 72.936Z" fill="white"/>
<path d="M86.708 52.1606C87.3407 52.116 87.9757 52.2046 88.572 52.4206C87.9393 52.4653 87.3043 52.3767 86.708 52.1606Z" fill="white"/>
<path d="M84.448 54.7119C84.2457 54.955 84.0147 55.1726 83.76 55.3599C83.5121 55.5516 83.2438 55.7152 82.96 55.8479C83.1608 55.6064 83.389 55.3889 83.64 55.1999C83.8902 55.0075 84.1612 54.8438 84.448 54.7119Z" fill="white"/>
<path d="M72.1321 61.9639C71.9274 62.2048 71.6952 62.421 71.4401 62.6079C71.1948 62.8032 70.9261 62.9671 70.6401 63.0959C70.8459 62.8559 71.078 62.6399 71.3321 62.4519C71.5781 62.2574 71.8467 62.0935 72.1321 61.9639Z" fill="white"/>
<path d="M87.512 65.2363C87.3074 65.4786 87.0752 65.696 86.82 65.8843C86.5741 66.0788 86.3055 66.2426 86.02 66.3723C86.2246 66.1301 86.4569 65.9126 86.712 65.7243C86.9593 65.5318 87.2277 65.3681 87.512 65.2363Z" fill="white"/>
<path d="M77.5521 71.5078C77.3474 71.75 77.1152 71.9675 76.8601 72.1558C76.6137 72.3497 76.3452 72.5135 76.0601 72.6438C76.2647 72.4016 76.4969 72.1841 76.7521 71.9958C76.9993 71.8033 77.2677 71.6396 77.5521 71.5078Z" fill="white"/>
<path d="M91.3279 56.668C91.1233 56.9102 90.8911 57.1277 90.6359 57.316C90.3881 57.5076 90.1198 57.6713 89.8359 57.804C90.0406 57.5617 90.2728 57.3443 90.5279 57.156C90.7743 56.9621 91.0428 56.7983 91.3279 56.668Z" fill="white"/>
<path d="M91.1199 63.9363C90.8777 63.7317 90.6602 63.4995 90.4719 63.2443C90.2772 62.9986 90.1133 62.7299 89.9839 62.4443C90.227 62.6466 90.4446 62.8776 90.6319 63.1323C90.823 63.382 90.9866 63.6516 91.1199 63.9363Z" fill="white"/>
<path d="M68.9202 68.9441C68.6779 68.7395 68.4605 68.5073 68.2722 68.2521C68.0797 68.0049 67.916 67.7365 67.7842 67.4521C68.0264 67.6568 68.2439 67.889 68.4322 68.1441C68.6261 68.3905 68.7899 68.659 68.9202 68.9441Z" fill="white"/>
<path d="M88.4202 74.9001C88.1771 74.6979 87.9595 74.4669 87.7722 74.2121C87.5805 73.9643 87.4168 73.696 87.2842 73.4121C87.5264 73.6167 87.7439 73.849 87.9322 74.1041C88.1252 74.3496 88.289 74.6167 88.4202 74.9001Z" fill="white"/>
<path d="M78.6482 57.9206C78.4061 57.7174 78.1886 57.4865 78.0002 57.2326C77.8093 56.9842 77.6457 56.716 77.5122 56.4326C77.7553 56.6348 77.9729 56.8659 78.1602 57.1206C78.3511 57.369 78.5147 57.6372 78.6482 57.9206Z" fill="white"/>
<path d="M78.8201 78.2918C78.5778 78.0872 78.3604 77.8549 78.1721 77.5998C77.9802 77.3521 77.8165 77.0838 77.6841 76.7998C77.9272 77.002 78.1448 77.2331 78.3321 77.4878C78.5246 77.7365 78.6883 78.0062 78.8201 78.2918Z" fill="white"/>
<path d="M80.4801 66.2762C80.2402 66.0704 80.0242 65.8383 79.8361 65.5842C79.6409 65.3388 79.4769 65.0701 79.3481 64.7842C79.5891 64.9889 79.8053 65.2211 79.9921 65.4762C80.1866 65.7221 80.3505 65.9907 80.4801 66.2762Z" fill="white"/>
<path d="M88.6919 56.2999C87.1839 56.0199 85.7679 52.9039 85.5879 50.8079C85.5879 50.6639 86.2919 49.5239 87.0959 48.0959C87.5839 47.2279 88.0999 46.2479 88.5119 45.3199C88.5959 45.1319 89.0879 45.7679 89.0879 45.7679L90.1599 46.5679L93.6999 49.2839C92.8569 50.2955 92.1409 51.4064 91.5679 52.5919C91.5113 52.7204 91.4684 52.8545 91.4399 52.9919C91.4383 53.0145 91.4383 53.0373 91.4399 53.0599C91.2199 53.8519 90.1439 56.5679 88.6919 56.2999Z" fill="#EB9481"/>
<path d="M91.44 53.0119C91.4384 53.0346 91.4384 53.0573 91.44 53.0799C91.2298 53.0183 91.0251 52.9394 90.828 52.8439C86.952 51.0279 88.66 45.8359 88.66 45.8359L90.18 46.5879L93.72 49.3039C92.877 50.3155 92.161 51.4264 91.588 52.6119C91.5245 52.7396 91.4749 52.8737 91.44 53.0119Z" fill="#263238"/>
<path d="M97.7681 38.2324C97.7681 38.2324 99.5401 39.3564 99.5481 41.3564C99.5561 43.3564 98.7481 45.3124 98.5801 45.3844C98.4121 45.4564 97.7681 38.2324 97.7681 38.2324Z" fill="#263238"/>
<path d="M88.9759 39.2722C87.9119 41.3722 87.9679 47.9922 89.2959 49.6962C91.2239 52.1682 94.9359 53.0202 97.1799 50.5762C99.3519 48.2082 99.1279 39.5842 97.5799 37.9762C95.3279 35.6002 90.5519 36.1642 88.9759 39.2722Z" fill="#EB9481"/>
<path d="M94.6241 44.5723C94.6241 44.5723 94.5881 44.5963 94.5921 44.6123C94.6161 45.0643 94.5681 45.5843 94.1641 45.7443C94.1641 45.7443 94.1641 45.7723 94.1641 45.7683C94.6641 45.6883 94.7201 44.9963 94.6241 44.5723Z" fill="#263238"/>
<path d="M94.2121 44.1121C93.4841 44.0721 93.4601 45.5281 94.1361 45.5641C94.8121 45.6001 94.8201 44.1441 94.2121 44.1121Z" fill="#263238"/>
<path d="M97.0921 44.5566C97.0921 44.5566 97.1281 44.5566 97.1281 44.5966C97.1041 45.0486 97.1561 45.5686 97.5641 45.7246C97.5641 45.7246 97.5641 45.7526 97.5641 45.7486C97.0601 45.6726 97.0001 44.9806 97.0921 44.5566Z" fill="#263238"/>
<path d="M97.5038 44.0918C98.2278 44.0478 98.2638 45.5038 97.5918 45.5438C96.9198 45.5838 96.8958 44.1278 97.5038 44.0918Z" fill="#263238"/>
<path d="M93.7561 43.0043C93.9472 42.9499 94.1355 42.8858 94.3201 42.8123C94.5302 42.7742 94.7216 42.6673 94.8641 42.5083C94.8987 42.45 94.9131 42.3821 94.9052 42.3148C94.8972 42.2476 94.8673 42.1848 94.8201 42.1363C94.7119 42.054 94.5836 42.0021 94.4486 41.9859C94.3136 41.9697 94.1767 41.9899 94.0521 42.0443C93.7822 42.1165 93.5485 42.2861 93.3961 42.5203C93.3657 42.576 93.3519 42.6392 93.3563 42.7026C93.3607 42.7659 93.3832 42.8266 93.4211 42.8776C93.459 42.9285 93.5107 42.9675 93.57 42.99C93.6294 43.0124 93.694 43.0174 93.7561 43.0043Z" fill="#263238"/>
<path d="M97.9999 43.6486C97.8053 43.6051 97.613 43.5517 97.4239 43.4886C97.2131 43.4607 97.0175 43.3636 96.8679 43.2126C96.8293 43.1569 96.8107 43.0899 96.8151 43.0224C96.8194 42.9548 96.8465 42.8908 96.8919 42.8406C96.995 42.7524 97.12 42.6936 97.2538 42.6703C97.3875 42.6471 97.525 42.6603 97.6519 42.7086C97.9255 42.7653 98.168 42.9222 98.3319 43.1486C98.3661 43.2021 98.3841 43.2645 98.3836 43.3281C98.383 43.3917 98.364 43.4538 98.3288 43.5068C98.2936 43.5597 98.2438 43.6014 98.1854 43.6265C98.127 43.6517 98.0625 43.6594 97.9999 43.6486Z" fill="#263238"/>
<path d="M93.5999 48.8483C93.7079 48.9563 93.8119 49.1003 93.9759 49.1163C94.144 49.1163 94.3103 49.0808 94.4639 49.0123C94.4639 49.0123 94.4919 49.0123 94.4639 49.0363C94.3983 49.1243 94.3101 49.1927 94.2086 49.2343C94.1071 49.2758 93.9963 49.289 93.8879 49.2723C93.7965 49.2474 93.7144 49.1962 93.6519 49.1251C93.5893 49.054 93.549 48.9661 93.5359 48.8723C93.5327 48.8639 93.533 48.8545 93.5368 48.8462C93.5405 48.838 93.5474 48.8315 93.5559 48.8283C93.5644 48.8252 93.5738 48.8255 93.582 48.8292C93.5903 48.833 93.5967 48.8399 93.5999 48.8483Z" fill="#263238"/>
<path d="M96.2158 46.9206C96.2158 46.9206 96.2358 47.5926 96.2158 47.9086C95.6011 47.8434 94.9804 47.8649 94.3718 47.9726C94.2278 48.0046 94.2438 47.8886 94.4078 47.8126C94.898 47.5885 95.444 47.5161 95.9758 47.6046C96.0078 47.5206 95.9238 46.5646 95.9758 46.5686C96.2177 46.6161 96.4519 46.6968 96.6718 46.8086C96.6718 45.4006 96.4478 44.0086 96.4678 42.6006C96.4678 42.5526 96.5438 42.5446 96.5518 42.6006C96.836 44.0901 96.97 45.6043 96.9518 47.1206C96.9558 47.2926 96.3358 46.9846 96.2158 46.9206Z" fill="#263238"/>
<path d="M95.316 47.668C95.1566 48.0874 94.8607 48.441 94.476 48.672C93.872 48.916 93.676 48.368 94.284 47.872C94.6029 47.7108 94.9598 47.6403 95.316 47.668Z" fill="#263238"/>
<path d="M94.688 48.5479C94.6241 48.5999 94.5526 48.6417 94.476 48.6719C93.92 48.8959 93.7 48.4519 94.148 48.0039C94.452 48.0279 94.8 48.1399 94.688 48.5479Z" fill="#FF99BA"/>
<path d="M88.6721 44.9322C89.4041 45.1562 90.2441 42.9562 90.4841 42.1322C90.6921 41.3882 90.9321 39.0242 90.9681 38.8602C91.0041 38.6962 94.1681 40.9522 96.0001 40.4162C97.8321 39.8802 99.0761 38.2202 99.1041 37.4482C99.1321 36.6762 96.8401 34.7162 94.8601 34.6162C92.8801 34.5162 90.1961 37.0162 90.1961 37.0162C90.5203 36.6483 90.8146 36.255 91.0761 35.8402C91.0441 35.7522 89.7641 36.2642 89.5281 37.1762C89.5281 37.1762 89.7841 36.0282 89.6881 36.0082C89.5921 35.9882 88.5961 36.9682 88.8201 37.7122C88.8201 37.7122 87.6681 38.7082 87.5641 39.8002C87.4601 40.8922 87.8121 44.6682 88.6721 44.9322Z" fill="#263238"/>
<path d="M97.3119 40.0006C96.7671 40.296 96.1803 40.5064 95.5719 40.6246C94.889 40.6855 94.2017 40.5755 93.5719 40.3046C92.9375 40.0595 92.3481 39.7108 91.8279 39.2726C91.3679 38.8966 90.9559 38.4366 90.4639 38.1006C90.3399 38.0126 90.1999 38.1926 90.2759 38.3046C91.0968 39.464 92.2694 40.3281 93.6199 40.7686C94.2472 40.9731 94.9168 41.0113 95.5632 40.8795C96.2097 40.7477 96.8108 40.4504 97.3079 40.0166C97.3079 40.0166 97.3199 40.0006 97.3119 40.0006Z" fill="#263238"/>
<path d="M89.436 44.7363C89.436 44.7363 88.3 42.4323 87.276 42.8043C86.252 43.1763 86.876 46.3643 87.928 46.9483C88.0569 47.0317 88.2012 47.0882 88.3525 47.1144C88.5037 47.1406 88.6586 47.136 88.8081 47.1009C88.9575 47.0658 89.0983 47.0009 89.222 46.9101C89.3457 46.8192 89.4498 46.7044 89.528 46.5723L89.436 44.7363Z" fill="#EB9481"/>
<path d="M87.4799 43.7119C87.4799 43.7119 87.4559 43.7119 87.4799 43.7439C88.2079 44.1759 88.5039 44.9439 88.6799 45.7439C88.6468 45.6592 88.5956 45.5827 88.53 45.5198C88.4644 45.4568 88.3859 45.4088 88.3 45.3791C88.214 45.3494 88.1226 45.3388 88.0321 45.3479C87.9416 45.357 87.8542 45.3857 87.7759 45.4319C87.7519 45.4319 87.7759 45.4759 87.7759 45.4759C87.919 45.4537 88.0655 45.4763 88.1951 45.5408C88.3248 45.6053 88.4313 45.7084 88.4999 45.8359C88.6144 46.0495 88.7056 46.2748 88.7719 46.5079C88.7959 46.5839 88.9279 46.5639 88.9159 46.4799C89.0879 45.4839 88.5279 43.9759 87.4799 43.7119Z" fill="#263238"/>
<path d="M81.9359 55.0239C81.1359 59.5559 86.0479 74.8239 89.1959 77.6759C93.8799 81.9159 102.54 84.7039 105.68 85.6119C107.048 86.0119 110.832 76.3839 109.448 75.7479C106.484 74.3999 97.2759 71.5199 96.3999 70.7999C95.5239 70.0799 90.2439 62.4519 87.8919 58.0599C84.7439 52.1479 82.3319 52.7319 81.9359 55.0239Z" fill="#EB9481"/>
<path d="M107.116 74.9004C107.116 74.9004 111.204 75.9444 113.84 76.7484C115.312 77.2004 117.768 78.1964 118.7 79.0204C120.092 80.2564 125.124 86.3044 123.684 87.5564C122.38 88.6924 118.716 82.9444 118.716 82.9444C118.716 82.9444 122.924 88.4164 121.116 89.4924C119.308 90.5684 116 83.5244 116 83.5244C116 83.5244 120.196 89.2444 118.144 90.0564C116.592 90.6684 113.264 84.4564 113.264 84.4564C113.264 84.4564 116.84 89.3964 115.264 90.0964C113.528 90.8724 110.1 85.3284 110.1 85.3284C105.812 86.4364 103.3 85.2084 101.648 84.1284C101.26 83.8644 107.116 74.9004 107.116 74.9004Z" fill="#EB9481"/>
<path d="M117.38 80.9558C117.9 81.5798 118.428 82.2118 118.888 82.8798C119.348 83.5478 119.784 84.2358 120.18 84.9438C120.716 85.8596 121.146 86.834 121.46 87.8478C120.772 86.0878 119.16 83.6678 118.7 82.9998C118.24 82.3318 117.812 81.6398 117.356 80.9718C117.344 80.9558 117.368 80.9398 117.38 80.9558Z" fill="#263238"/>
<path d="M114.936 82.5763C115.824 83.2803 117.684 85.8963 118.4 87.6523C118.432 87.7243 118.4 87.7203 118.348 87.6523C117.788 86.7843 115.516 83.4243 114.916 82.5883C114.904 82.5763 114.924 82.5643 114.936 82.5763Z" fill="#263238"/>
<path d="M112.588 83.5999C113.691 84.7572 114.563 86.1149 115.156 87.5999C115.184 87.6719 115.128 87.6599 115.084 87.5999C114.256 86.2519 113.616 85.1999 112.544 83.6359C112.528 83.5999 112.564 83.5639 112.588 83.5999Z" fill="#263238"/>
<path d="M86.4001 55.3558C82.7481 50.1918 80.5641 52.1038 81.2961 57.7118C81.9841 62.9558 83.8201 69.2038 83.8201 69.2038L93.0201 64.7398C93.0201 64.7398 88.7241 58.6638 86.4001 55.3558Z" fill="#06844B"/>
<path d="M88.6199 57.3887C88.7411 57.6803 88.8284 57.985 88.8799 58.2967C88.936 58.6093 88.9562 58.9274 88.9399 59.2447C88.8199 58.9515 88.734 58.6455 88.6839 58.3327C88.6244 58.0218 88.6029 57.7048 88.6199 57.3887Z" fill="white"/>
<path d="M83.168 60.5284C83.7551 60.2896 84.3868 60.1804 85.02 60.2084C84.7282 60.3283 84.4235 60.4142 84.112 60.4644C83.801 60.5238 83.4841 60.5452 83.168 60.5284Z" fill="white"/>
<path d="M83.4038 52.4961C83.1561 53.0807 82.7866 53.6057 82.3198 54.0361C82.5675 53.4515 82.9371 52.9265 83.4038 52.4961Z" fill="white"/>
<path d="M91.2002 62.9404C91.0788 63.233 90.9245 63.5108 90.7402 63.7684C90.5608 64.0294 90.3514 64.2683 90.1162 64.4804C90.3639 63.8958 90.7335 63.3708 91.2002 62.9404Z" fill="white"/>
<path d="M84.7998 66.0723C84.5065 65.9523 84.2286 65.7979 83.9718 65.6123C83.7107 65.433 83.4717 65.2236 83.2598 64.9883C83.8443 65.236 84.3694 65.6055 84.7998 66.0723Z" fill="white"/>
<path d="M87.5998 56.9121C88.0918 57.5881 88.5998 58.2481 89.1038 58.9121C88.9758 58.5761 88.8638 58.2361 88.7678 57.8921H88.7918C88.8918 58.1561 89.0078 58.4161 89.1038 58.6921L89.2478 59.0921C89.2602 59.1194 89.2709 59.1475 89.2798 59.1761C89.6798 59.6921 90.0798 60.2081 90.4478 60.7361C90.8998 61.3681 91.3358 62.0081 91.7758 62.6481C92.2158 63.2881 92.6598 64.0841 93.1358 64.7281C93.1798 64.7841 92.3358 65.1281 92.2438 65.1721C92.1518 65.2161 92.1038 65.1401 92.1918 65.1121C92.2798 65.0841 92.9518 64.6721 92.9598 64.6641C92.5198 64.0161 92.0118 63.4201 91.5518 62.7921C91.0918 62.1641 90.6358 61.5361 90.1918 60.9001C89.2918 59.6041 88.4678 58.2601 87.5718 56.9601L87.5998 56.9121Z" fill="#263238"/>
<path d="M81.5118 61.4247C81.6518 61.6967 81.8038 61.9647 81.9118 62.2447L82.0638 62.5927C81.8518 61.5967 81.6638 60.5927 81.4438 59.5967C81.8678 61.1967 82.2958 62.8327 82.6878 64.4567C83.0598 66.0087 83.5119 67.5767 83.7279 69.1607C84.0068 69.0383 84.2959 68.9406 84.5918 68.8687C84.2948 69.0609 83.975 69.2154 83.6398 69.3287C83.1577 67.7179 82.7572 66.0838 82.4398 64.4327C82.3398 63.9847 82.2478 63.5367 82.1518 63.0887C82.0478 62.8167 81.9238 62.5567 81.7998 62.2887C81.6758 62.0207 81.5638 61.7207 81.4518 61.4367C81.4758 61.4207 81.5038 61.4047 81.5118 61.4247Z" fill="#263238"/>
<path d="M83.9558 67.66C85.2358 66.94 90.5838 64.172 91.7798 63.66C91.8638 63.624 91.9078 63.66 91.8238 63.716C89.2853 65.191 86.6681 66.5264 83.9838 67.716C83.9518 67.724 83.9198 67.68 83.9558 67.66Z" fill="#263238"/>
<path d="M230.528 172.82H108.656L126.276 72.8799H248.148L230.528 172.82Z" fill="#06844B"/>
<path d="M167.988 62.5283H128.104L126.276 72.8803H168.96L167.988 62.5283Z" fill="#06844B"/>
<g opacity="0.1">
<path d="M230.528 172.82H108.656L126.276 72.8799H248.148L230.528 172.82Z" fill="black"/>
<path d="M167.988 62.5283H128.104L126.276 72.8803H168.96L167.988 62.5283Z" fill="black"/>
</g>
<path d="M123.8 66.7525C123.533 65.6078 123.533 64.4171 123.8 63.2725C124.067 64.4171 124.067 65.6078 123.8 66.7525Z" fill="#263238"/>
<path d="M120.256 67.7766C119.849 67.3542 119.498 66.881 119.212 66.3686C118.912 65.8668 118.677 65.3292 118.512 64.7686C118.921 65.1884 119.272 65.6605 119.556 66.1726C119.855 66.676 120.09 67.2149 120.256 67.7766Z" fill="#263238"/>
<path d="M117.696 70.4363C116.572 70.0945 115.542 69.4992 114.684 68.6963C115.245 68.8593 115.783 69.0932 116.284 69.3923C116.797 69.6799 117.271 70.0307 117.696 70.4363Z" fill="#263238"/>
<path d="M116.8 74.0203C115.656 74.287 114.465 74.287 113.32 74.0203C114.465 73.7536 115.656 73.7536 116.8 74.0203Z" fill="#263238"/>
<path d="M117.84 77.5645C117.416 77.9696 116.943 78.3203 116.432 78.6085C115.93 78.9076 115.393 79.1415 114.832 79.3044C115.254 78.8972 115.728 78.5462 116.24 78.2604C116.741 77.9599 117.279 77.7259 117.84 77.5645Z" fill="#263238"/>
<path d="M120.496 80.1201C120.155 81.2458 119.56 82.2779 118.756 83.1361C118.919 82.5746 119.154 82.0368 119.456 81.5361C119.741 81.0219 120.09 80.546 120.496 80.1201Z" fill="#263238"/>
<path d="M124.08 81.0039C124.219 81.5732 124.287 82.1578 124.28 82.7439C124.289 83.3301 124.221 83.915 124.08 84.4839C123.937 83.9153 123.869 83.3302 123.88 82.7439C123.873 82.1578 123.941 81.5732 124.08 81.0039Z" fill="#263238"/>
<path d="M127.624 80.0002C128.031 80.4225 128.382 80.8958 128.668 81.4082C128.969 81.909 129.203 82.4469 129.364 83.0082C128.56 82.1499 127.965 81.1179 127.624 79.9922V80.0002Z" fill="#263238"/>
<path d="M130.18 77.3203C130.741 77.4818 131.279 77.7158 131.78 78.0163C132.293 78.3021 132.766 78.653 133.188 79.0603C132.627 78.8988 132.089 78.6649 131.588 78.3643C131.076 78.0785 130.603 77.7276 130.18 77.3203Z" fill="#263238"/>
<path d="M131.064 73.7361C132.21 73.4695 133.402 73.4695 134.548 73.7361C133.402 74.0027 132.21 74.0027 131.064 73.7361Z" fill="#263238"/>
<path d="M130.04 70.1921C130.464 69.7873 130.937 69.4379 131.448 69.1521C131.948 68.8487 132.486 68.6133 133.048 68.4521C132.19 69.2562 131.158 69.8516 130.032 70.1921H130.04Z" fill="#263238"/>
<path d="M127.38 67.6359C127.545 67.0758 127.778 66.5383 128.076 66.0359C128.362 65.5235 128.713 65.0503 129.12 64.6279C128.958 65.1892 128.724 65.7271 128.424 66.2279C128.138 66.7403 127.787 67.2136 127.38 67.6359Z" fill="#263238"/>
<path d="M230.348 172.821H108.216L90.8721 76.5088H213.008L230.348 172.821Z" fill="#06844B"/>
<path d="M133.196 135.384C136 135.384 138.272 133.112 138.272 130.308C138.272 127.505 136 125.232 133.196 125.232C130.393 125.232 128.12 127.505 128.12 130.308C128.12 133.112 130.393 135.384 133.196 135.384Z" fill="#263238"/>
<path d="M173.324 135.384C176.127 135.384 178.4 133.112 178.4 130.308C178.4 127.505 176.127 125.232 173.324 125.232C170.521 125.232 168.248 127.505 168.248 130.308C168.248 133.112 170.521 135.384 173.324 135.384Z" fill="#263238"/>
<path d="M160.552 136.196L160.272 135.664C160.248 135.616 157.624 130.768 152.348 130.768C147.548 130.768 146.348 135.332 146.316 135.528L146.172 136.108L145.008 135.828L145.148 135.244C145.148 135.188 146.58 129.568 152.348 129.568C158.348 129.568 161.216 134.88 161.336 135.108L161.616 135.636L160.552 136.196Z" fill="#263238"/>
<path d="M222.284 129.92L222.2 129.52C222.46 129.464 222.716 129.404 222.972 129.336L223.072 129.736C222.8 129.804 222.548 129.864 222.284 129.92Z" fill="#263238"/>
<path d="M224.62 129.276L224.492 128.9C224.992 128.728 225.492 128.54 225.976 128.336L226.132 128.704C225.64 128.912 225.132 129.104 224.62 129.276ZM227.6 128L227.42 127.648C227.888 127.404 228.356 127.14 228.8 126.848L229.008 127.188C228.552 127.504 228.076 127.772 227.6 128ZM230.352 126.308L230.116 125.984C230.548 125.668 230.964 125.336 231.356 124.996L231.62 125.296C231.2 125.66 230.8 126 230.348 126.324L230.352 126.308ZM232.792 124.18L232.5 123.904C232.868 123.504 233.216 123.104 233.536 122.704L233.852 122.948C233.52 123.388 233.164 123.8 232.8 124.196L232.792 124.18ZM234.772 121.62L234.432 121.408C234.709 120.961 234.955 120.496 235.168 120.016L235.536 120.18C235.31 120.681 235.054 121.167 234.768 121.636L234.772 121.62ZM236.096 118.652L235.696 118.54C235.842 118.038 235.951 117.526 236.02 117.008L236.42 117.06C236.354 117.604 236.244 118.142 236.092 118.668L236.096 118.652ZM236.54 115.452H236.14V115.336C236.14 114.852 236.112 114.36 236.064 113.876L236.464 113.836C236.517 114.334 236.544 114.835 236.544 115.336L236.54 115.452ZM235.82 112.32C235.713 111.804 235.579 111.294 235.42 110.792L235.82 110.672C235.984 111.192 236.124 111.72 236.22 112.236L235.82 112.32ZM234.872 109.308C234.68 108.836 234.472 108.352 234.216 107.864L234.576 107.684C234.82 108.18 235.044 108.676 235.24 109.156L234.872 109.308ZM233.472 106.456C233.224 106.02 232.952 105.56 232.672 105.088L233.012 104.876C233.304 105.352 233.58 105.816 233.812 106.26L233.472 106.456ZM231.8 103.74C231.508 103.3 231.212 102.856 230.908 102.412L231.24 102.188C231.544 102.632 231.84 103.076 232.132 103.524L231.8 103.74ZM230 101.092C229.7 100.652 229.396 100.208 229.1 99.7681L229.432 99.5441C229.728 99.9841 230.028 100.428 230.328 100.864L230 101.092ZM228.212 98.4281C227.92 97.9801 227.636 97.5241 227.356 97.0681L227.696 96.8601C227.976 97.3161 228.26 97.7641 228.548 98.2121L228.212 98.4281ZM226.544 95.6801C226.272 95.1961 226.02 94.7161 225.792 94.2561L226.152 94.0761C226.376 94.5321 226.628 95.0041 226.892 95.4841L226.544 95.6801ZM225.124 92.8001C224.912 92.3001 224.724 91.7921 224.548 91.2961L224.948 91.1681C225.116 91.6521 225.304 92.1521 225.512 92.6441L225.124 92.8001ZM224.084 89.7481C223.952 89.2281 223.836 88.6961 223.748 88.1481L224.148 88.0841C224.236 88.5961 224.344 89.1161 224.476 89.6281L224.084 89.7481ZM223.548 86.5481C223.508 86.0561 223.488 85.5601 223.488 85.0641V84.9321H223.888V85.0601C223.888 85.5441 223.888 86.0321 223.948 86.5121L223.548 86.5481ZM223.948 83.3481L223.548 83.3081C223.548 83.2001 223.568 83.0881 223.58 82.9721C223.628 82.5441 223.688 82.1161 223.76 81.7081L224.16 81.7761C224.092 82.1761 224.032 82.5961 223.984 83.0161C224 83.1401 224 83.2481 223.968 83.3601L223.948 83.3481ZM224.504 80.2361L224.104 80.1281C224.252 79.6001 224.424 79.0841 224.616 78.5921L224.988 78.7361C224.806 79.2314 224.652 79.7361 224.524 80.2481L224.504 80.2361ZM244.436 77.9041C244.212 77.9041 243.98 77.8721 243.752 77.8401C243.44 77.7961 243.128 77.7441 242.82 77.6841L242.9 77.2841C243.196 77.3401 243.504 77.3921 243.808 77.4361C244.024 77.4641 244.244 77.4841 244.456 77.4961L244.436 77.9041ZM246.08 77.7801L245.996 77.3801C246.498 77.2765 246.98 77.0899 247.42 76.8281L247.628 77.1681C247.157 77.4597 246.641 77.6706 246.1 77.7921L246.08 77.7801ZM225.656 77.3041L225.3 77.1161C225.555 76.6391 225.837 76.177 226.144 75.7321L226.472 75.9601C226.18 76.3957 225.914 76.8486 225.676 77.3161L225.656 77.3041ZM241.256 77.2801C240.74 77.1163 240.233 76.9254 239.736 76.7081L239.9 76.3401C240.381 76.5538 240.874 76.7394 241.376 76.8961L241.256 77.2801ZM248.856 76.0321L248.524 75.8081C248.809 75.3949 248.978 74.9128 249.012 74.4121L249.412 74.4401C249.378 75.014 249.19 75.568 248.868 76.0441L248.856 76.0321ZM238.296 75.9721C237.828 75.7 237.375 75.4023 236.94 75.0801L237.176 74.7601C237.6 75.0725 238.041 75.361 238.496 75.6241L238.296 75.9721ZM227.456 74.7241L227.16 74.4561C227.522 74.0533 227.908 73.6726 228.316 73.3161L228.58 73.6161C228.188 73.9672 227.817 74.3412 227.468 74.7361L227.456 74.7241ZM235.692 74.0481C235.294 73.6811 234.916 73.2926 234.56 72.8841L234.86 72.6201C235.206 73.0168 235.574 73.3947 235.96 73.7521L235.692 74.0481ZM248.712 72.9641C248.483 72.507 248.166 72.0993 247.78 71.7641L248.044 71.4641C248.469 71.8318 248.818 72.2788 249.072 72.7801L248.712 72.9641ZM229.824 72.6481L229.596 72.3201C230.044 72.0146 230.507 71.7329 230.984 71.4761L231.172 71.8281C230.713 72.0821 230.267 72.3598 229.836 72.6601L229.824 72.6481ZM233.56 71.6081C233.408 71.3921 233.26 71.1721 233.12 70.9441L232.6 71.1481L232.448 70.7801L232.908 70.5961C232.836 70.4761 232.764 70.3561 232.696 70.2361L233.044 70.0401C233.124 70.1801 233.204 70.3201 233.288 70.4401C233.512 70.3601 233.74 70.2841 233.972 70.2121L234.088 70.6121C233.892 70.6721 233.688 70.7361 233.504 70.8041C233.628 71.0001 233.756 71.2041 233.904 71.3761L233.56 71.6081ZM246.492 70.9201C246.105 70.7273 245.704 70.5641 245.292 70.4321L245.028 70.3481L245.144 69.9481L245.416 70.0361C245.845 70.1727 246.262 70.3426 246.664 70.5441L246.492 70.9201ZM235.62 70.2041L235.536 69.8041C236.052 69.6881 236.588 69.5921 237.136 69.5161L237.196 69.9161C236.668 70.0001 236.144 70.1001 235.632 70.2161L235.62 70.2041ZM243.5 69.9881C243 69.9001 242.472 69.8321 241.932 69.7841L241.964 69.3841C242.52 69.4321 243.06 69.5001 243.564 69.5921L243.5 69.9881ZM238.76 69.7561L238.732 69.3561C239.208 69.3281 239.684 69.3121 240.156 69.3121H240.352V69.7121H240.16C239.708 69.7241 239.236 69.7361 238.772 69.7681L238.76 69.7561ZM232 68.8001C231.784 68.3121 231.6 67.8041 231.42 67.2881L231.82 67.1641C231.988 67.6681 232.176 68.1641 232.384 68.6401L232 68.8001ZM230.988 65.7281C230.868 65.2121 230.768 64.6761 230.692 64.1281L231.092 64.0721C231.168 64.6001 231.264 65.1241 231.38 65.6321L230.988 65.7281ZM230.54 62.5281C230.52 62.1681 230.508 61.8001 230.508 61.4321C230.508 61.2601 230.508 61.0841 230.508 60.9121H230.908C230.908 61.0841 230.908 61.2521 230.908 61.4241C230.908 61.7841 230.908 62.1481 230.936 62.4961L230.54 62.5281ZM231.016 59.3281L230.616 59.2881C230.672 58.7601 230.748 58.2201 230.84 57.6881L231.24 57.7561C231.132 58.2881 231.056 58.8001 231.004 59.3361L231.016 59.3281ZM231.564 56.2041L231.164 56.1081C231.292 55.5921 231.44 55.0721 231.604 54.5521L232.004 54.6761C231.824 55.2001 231.676 55.7081 231.552 56.2121L231.564 56.2041ZM232.524 53.1761L232.152 53.0321C232.348 52.5321 232.552 52.0321 232.796 51.5481L233.156 51.7241C232.916 52.2041 232.704 52.6921 232.512 53.2001L232.524 53.1761ZM233.9 50.3241L233.552 50.1201C233.824 49.6601 234.116 49.2001 234.42 48.7601L234.748 48.9881C234.436 49.4281 234.152 49.8761 233.888 50.3321L233.9 50.3241ZM235.704 47.7201L235.392 47.4681C235.728 47.0681 236.088 46.6441 236.46 46.2681L236.748 46.5441C236.372 46.9201 236.02 47.3201 235.692 47.7281L235.704 47.7201ZM237.88 45.4161L237.612 45.1201C238.012 44.7641 238.412 44.4121 238.84 44.0721L239.088 44.3881C238.66 44.7281 238.252 45.0761 237.868 45.4241L237.88 45.4161ZM240.364 43.4401L240.136 43.1081C240.572 42.8081 241.028 42.5121 241.492 42.2321L241.696 42.5721C241.232 42.8561 240.8 43.1481 240.352 43.4481L240.364 43.4401ZM243.08 41.7881L242.892 41.4361C243.364 41.1841 243.852 40.9441 244.34 40.7201L244.508 41.0841C244 41.3121 243.532 41.5521 243.068 41.7961L243.08 41.7881ZM245.972 40.4601L245.824 40.0841C246.328 39.8881 246.836 39.6841 247.34 39.5361L247.468 39.9361C246.96 40.0881 246.456 40.2721 245.96 40.4681L245.972 40.4601Z" fill="#263238"/>
<path d="M249.056 39.4483L248.956 39.0483C249.452 38.9203 249.756 38.8643 249.756 38.8643L249.828 39.2643C249.828 39.2643 249.54 39.3243 249.056 39.4483Z" fill="#263238"/>
<path d="M256.128 36.8648C255.108 33.7048 248.276 34.8408 249.608 38.9728C250.94 43.1048 257.148 40.0288 256.128 36.8648Z" fill="#263238"/>
<path d="M245.892 35.6004C245.944 34.2124 247.872 33.1444 250.6 33.6364C253.328 34.1284 255.892 35.9684 255.892 35.9684C255.892 35.9684 253.2 37.6004 250.444 37.9004C247.688 38.2004 245.84 36.9844 245.892 35.6004Z" fill="#EBEBEB"/>
<path d="M255.892 35.9604C254.476 35.9604 253.064 35.9204 251.652 35.8764C250.24 35.8324 248.824 35.7604 247.412 35.6484C248.828 35.6484 250.244 35.6844 251.656 35.7284C253.068 35.7724 254.484 35.8444 255.892 35.9604Z" fill="#263238"/>
<path d="M248.632 34.3643C249.436 34.7488 250.194 35.2225 250.892 35.7763C250.49 35.5875 250.1 35.3737 249.724 35.1363C249.346 34.9004 248.981 34.6426 248.632 34.3643Z" fill="#263238"/>
<path d="M252.34 35.8281C251.616 36.4146 250.832 36.9215 250 37.3401C250.727 36.753 251.516 36.246 252.352 35.8281H252.34Z" fill="#263238"/>
<path d="M252.752 35.0488C253.156 35.2426 253.509 35.5274 253.784 35.8808C253.583 35.7856 253.393 35.666 253.22 35.5248C253.047 35.3845 252.89 35.2248 252.752 35.0488Z" fill="#263238"/>
<path d="M248.492 43.8209C249.344 44.9169 251.532 44.6529 253.456 42.6609C255.38 40.6689 256.4 37.6729 256.4 37.6729C256.4 37.6729 253.248 37.9129 250.844 39.2729C248.44 40.6329 247.636 42.7209 248.492 43.8209Z" fill="#EBEBEB"/>
<path d="M256.4 37.6729C255.248 38.4729 254.128 39.3609 253.004 40.2209C251.88 41.0809 250.78 41.9689 249.704 42.8849C250.856 42.0849 251.976 41.2009 253.096 40.3409C254.216 39.4809 255.308 38.5929 256.4 37.6729Z" fill="#263238"/>
<path d="M251.432 43.2003C251.646 42.8118 251.837 42.4111 252.004 42.0003C252.174 41.5884 252.319 41.1663 252.436 40.7363C252.222 41.1246 252.031 41.5253 251.864 41.9363C251.696 42.3489 251.551 42.7709 251.432 43.2003Z" fill="#263238"/>
<path d="M253.6 39.8567C252.664 39.8067 251.726 39.8563 250.8 40.0047C251.267 40.0327 251.734 40.0327 252.2 40.0047C252.669 39.9819 253.137 39.9325 253.6 39.8567Z" fill="#263238"/>
<path d="M254.372 40.2527C254.479 40.0552 254.562 39.8458 254.62 39.6288C254.679 39.4133 254.714 39.1919 254.724 38.9688C254.511 39.3647 254.391 39.8037 254.372 40.2527Z" fill="#263238"/>
<path d="M256.128 36.8648C255.902 36.9381 255.66 36.9428 255.431 36.8782C255.203 36.8136 254.998 36.6826 254.844 36.5018C254.69 36.321 254.593 36.0986 254.566 35.8627C254.538 35.6268 254.581 35.388 254.689 35.1766C254.798 34.9652 254.966 34.7906 255.174 34.6751C255.381 34.5595 255.618 34.5081 255.855 34.5274C256.092 34.5467 256.317 34.6358 256.504 34.7834C256.69 34.9311 256.828 35.1306 256.9 35.3568C256.997 35.6591 256.97 35.9876 256.826 36.2703C256.681 36.5529 256.43 36.7667 256.128 36.8648Z" fill="#455A64"/>
<path d="M256.864 39.1484C256.639 39.2214 256.396 39.2259 256.168 39.1612C255.94 39.0966 255.736 38.9656 255.582 38.785C255.428 38.6044 255.331 38.3823 255.303 38.1466C255.275 37.9109 255.318 37.6723 255.426 37.461C255.534 37.2496 255.702 37.075 255.909 36.9592C256.116 36.8434 256.353 36.7916 256.59 36.8104C256.826 36.8292 257.052 36.9177 257.238 37.0647C257.425 37.2117 257.563 37.4106 257.636 37.6364C257.685 37.7863 257.704 37.9444 257.691 38.1016C257.679 38.2587 257.635 38.4119 257.564 38.5523C257.492 38.6927 257.393 38.8177 257.273 38.9199C257.153 39.0222 257.014 39.0998 256.864 39.1484Z" fill="#455A64"/>
<path d="M125.724 38.1271C125.532 39.9644 124.833 41.7122 123.706 43.1757C122.579 44.6391 121.067 45.7605 119.34 46.4147C117.612 47.0689 115.737 47.2303 113.923 46.8807C112.109 46.5312 110.428 45.6845 109.068 44.4351L104.08 45.1671L106.576 40.8551C106.005 39.4521 105.761 37.9374 105.863 36.4261C105.966 34.9149 106.411 33.4468 107.166 32.1334C107.92 30.82 108.964 29.6958 110.218 28.8463C111.472 27.9967 112.903 27.4442 114.403 27.2305C115.902 27.0169 117.431 27.1478 118.872 27.6133C120.314 28.0788 121.63 28.8667 122.721 29.9172C123.813 30.9676 124.65 32.2529 125.17 33.6755C125.691 35.0981 125.88 36.6205 125.724 38.1271Z" fill="white"/>
<path d="M125.724 38.1276C125.536 39.9639 124.844 41.7124 123.724 43.1796C123.176 43.9216 122.516 44.5735 121.768 45.1116C121.035 45.6699 120.227 46.1211 119.368 46.4516C118.508 46.7903 117.604 47.0057 116.684 47.0916C116.224 47.1329 115.761 47.1422 115.3 47.1196C114.837 47.1077 114.375 47.0595 113.92 46.9756C112.081 46.6373 110.374 45.7938 108.988 44.5396L109.104 44.5756L104.124 45.3396L103.76 45.3956L103.944 45.0756L106.424 40.7556V40.9276C105.839 39.4986 105.59 37.9542 105.697 36.4138C105.803 34.8734 106.263 33.3781 107.04 32.0436C107.816 30.7133 108.882 29.5756 110.16 28.7156C111.435 27.867 112.886 27.3182 114.404 27.1104C115.922 26.9026 117.467 27.0411 118.924 27.5156C120.365 28.0059 121.678 28.8122 122.768 29.8756C123.855 30.9363 124.686 32.2306 125.198 33.6604C125.71 35.0902 125.89 36.6179 125.724 38.1276ZM125.724 38.1276C125.885 36.6254 125.7 35.1061 125.181 33.6871C124.662 32.2681 123.824 30.9873 122.732 29.9435C121.639 28.8998 120.322 28.1211 118.88 27.6675C117.439 27.2139 115.913 27.0976 114.42 27.3276C112.941 27.5464 111.533 28.102 110.304 28.9516C109.085 29.8078 108.067 30.9188 107.32 32.2076C106.584 33.4992 106.151 34.9406 106.052 36.4236C105.954 37.9166 106.195 39.4124 106.756 40.7996L106.792 40.8876L106.744 40.9716L104.232 45.2756L104.056 45.0116L109.048 44.3116H109.116L109.164 44.3556C110.498 45.5976 112.152 46.4438 113.94 46.7996C114.385 46.8904 114.837 46.9452 115.292 46.9636C115.746 46.9956 116.202 46.9956 116.656 46.9636C117.566 46.8902 118.463 46.6924 119.32 46.3756C120.179 46.0629 120.987 45.6263 121.72 45.0796C122.465 44.5458 123.126 43.9026 123.68 43.1716C124.814 41.7116 125.522 39.9655 125.724 38.1276Z" fill="#263238"/>
<path d="M110.936 41.7395C110.928 41.607 110.948 41.4744 110.993 41.3499C111.039 41.2254 111.11 41.1116 111.201 41.0155C111.293 40.9195 111.403 40.8433 111.525 40.7917C111.648 40.7401 111.779 40.7141 111.912 40.7155C112.183 40.7155 112.444 40.8233 112.636 41.0154C112.828 41.2074 112.936 41.4679 112.936 41.7395C112.936 42.011 112.828 42.2715 112.636 42.4635C112.444 42.6556 112.183 42.7635 111.912 42.7635C111.779 42.7648 111.648 42.7388 111.525 42.6872C111.403 42.6356 111.293 42.5594 111.201 42.4634C111.11 42.3673 111.039 42.2535 110.993 42.129C110.948 42.0045 110.928 41.8719 110.936 41.7395ZM111.336 39.3755L111.104 31.4395H112.704L112.472 39.3755H111.336Z" fill="#06844B"/>
<path d="M114.74 41.7395C114.732 41.6074 114.752 41.4751 114.797 41.3509C114.843 41.2266 114.913 41.113 115.004 41.017C115.095 40.9211 115.205 40.8448 115.327 40.7929C115.449 40.741 115.58 40.7147 115.712 40.7155C115.983 40.7155 116.244 40.8233 116.436 41.0154C116.628 41.2074 116.736 41.4679 116.736 41.7395C116.736 42.011 116.628 42.2715 116.436 42.4635C116.244 42.6556 115.983 42.7635 115.712 42.7635C115.58 42.7642 115.449 42.7379 115.327 42.686C115.205 42.6341 115.095 42.5579 115.004 42.4619C114.913 42.3659 114.843 42.2523 114.797 42.1281C114.752 42.0038 114.732 41.8715 114.74 41.7395ZM115.14 39.3755L114.92 31.4395H116.52L116.288 39.3755H115.14Z" fill="#06844B"/>
<path d="M118.54 41.7395C118.532 41.607 118.552 41.4744 118.597 41.3499C118.643 41.2254 118.714 41.1116 118.805 41.0155C118.897 40.9195 119.007 40.8433 119.129 40.7917C119.252 40.7401 119.383 40.7141 119.516 40.7155C119.787 40.7155 120.048 40.8233 120.24 41.0154C120.432 41.2074 120.54 41.4679 120.54 41.7395C120.54 42.011 120.432 42.2715 120.24 42.4635C120.048 42.6556 119.787 42.7635 119.516 42.7635C119.383 42.7648 119.252 42.7388 119.129 42.6872C119.007 42.6356 118.897 42.5594 118.805 42.4634C118.714 42.3673 118.643 42.2535 118.597 42.129C118.552 42.0045 118.532 41.8719 118.54 41.7395ZM118.94 39.3755L118.708 31.4395H120.308L120.08 39.3755H118.94Z" fill="#06844B"/>
</svg>
