<svg width="28" height="28" viewBox="0 0 28 28" fill="none" xmlns="http://www.w3.org/2000/svg">
<g clip-path="url(#clip0_33_531)">
<path d="M11.8002 6.29961C11.8002 5.71613 12.032 5.15655 12.4446 4.74397C12.8571 4.33139 13.4167 4.09961 14.0002 4.09961C14.5837 4.09961 15.1432 4.33139 15.5558 4.74397C15.9684 5.15655 16.2002 5.71613 16.2002 6.29961C17.4634 6.89694 18.5403 7.82677 19.3154 8.98944C20.0906 10.1521 20.5347 11.5038 20.6002 12.8996V16.1996C20.683 16.8835 20.9252 17.5384 21.3073 18.1115C21.6894 18.6847 22.2008 19.1602 22.8002 19.4996H5.2002C5.79963 19.1602 6.31099 18.6847 6.6931 18.1115C7.07522 17.5384 7.31741 16.8835 7.4002 16.1996V12.8996C7.46571 11.5038 7.90983 10.1521 8.68494 8.98944C9.46005 7.82677 10.5369 6.89694 11.8002 6.29961" stroke="#181725" stroke-width="1.5" stroke-linecap="round" stroke-linejoin="round"/>
<path d="M10.7002 19.5V20.6C10.7002 21.4752 11.0479 22.3146 11.6667 22.9335C12.2856 23.5523 13.125 23.9 14.0002 23.9C14.8754 23.9 15.7148 23.5523 16.3336 22.9335C16.9525 22.3146 17.3002 21.4752 17.3002 20.6V19.5" stroke="#181725" stroke-width="1.5" stroke-linecap="round" stroke-linejoin="round"/>
<circle cx="20.6002" cy="7.4" r="3.65" fill="#06844B" stroke="#E8E8E9" stroke-width="1.5"/>
</g>
<defs>
<clipPath id="clip0_33_531">
<rect width="26.4" height="26.4" fill="white" transform="translate(0.799805 0.799805)"/>
</clipPath>
</defs>
</svg>
