<svg width="18" height="18" viewBox="0 0 18 18" fill="none" xmlns="http://www.w3.org/2000/svg">
<path d="M10.666 17.3337V5.66699M10.666 17.3337H5.66602C3.30935 17.3337 2.13018 17.3337 1.39852 16.6012C0.666016 15.8695 0.666016 14.6903 0.666016 12.3337V5.66699C0.666016 3.31033 0.666016 2.13116 1.39852 1.39949C2.13018 0.666992 3.30935 0.666992 5.66602 0.666992C8.02268 0.666992 9.20185 0.666992 9.93352 1.39949C10.666 2.13116 10.666 3.31033 10.666 5.66699M10.666 17.3337H13.9993C15.571 17.3337 16.356 17.3337 16.8443 16.8453C17.3327 16.357 17.3327 15.572 17.3327 14.0003V9.00033C17.3327 7.42866 17.3327 6.64366 16.8443 6.15533C16.356 5.66699 15.571 5.66699 13.9993 5.66699H10.666M4.41602 8.16699H3.58268M7.74935 8.16699H6.91602M4.41602 4.83366H3.58268M4.41602 11.5003H3.58268M7.74935 4.83366H6.91602M7.74935 11.5003H6.91602M14.416 11.5003H13.5827M14.416 8.16699H13.5827" stroke="#181725" stroke-linecap="round" stroke-linejoin="round"/>
</svg>
