<svg width="28" height="28" viewBox="0 0 28 28" fill="none" xmlns="http://www.w3.org/2000/svg">
<path d="M2.33398 14.0003C2.33398 9.60083 2.33398 7.40049 3.70132 6.03433C5.06865 4.66816 7.26782 4.66699 11.6673 4.66699H16.334C20.7335 4.66699 22.9338 4.66699 24.3 6.03433C25.6662 7.40166 25.6673 9.60083 25.6673 14.0003C25.6673 18.3998 25.6673 20.6002 24.3 21.9663C22.9327 23.3325 20.7335 23.3337 16.334 23.3337H11.6673C7.26782 23.3337 5.06748 23.3337 3.70132 21.9663C2.33515 20.599 2.33398 18.3998 2.33398 14.0003Z" stroke="#181725" stroke-width="1.5"/>
<path d="M11.6673 19.2503H7.00065M9.33398 15.7503H7.00065M2.33398 11.667H25.6673" stroke="#181725" stroke-width="1.5" stroke-linecap="round"/>
<path d="M16.334 17.5003C16.334 16.4002 16.334 15.8507 16.6758 15.5088C17.0177 15.167 17.5672 15.167 18.6673 15.167C19.7675 15.167 20.317 15.167 20.6588 15.5088C21.0007 15.8507 21.0007 16.4002 21.0007 17.5003C21.0007 18.6005 21.0007 19.15 20.6588 19.4918C20.317 19.8337 19.7675 19.8337 18.6673 19.8337C17.5672 19.8337 17.0177 19.8337 16.6758 19.4918C16.334 19.15 16.334 18.6005 16.334 17.5003Z" stroke="#181725" stroke-width="1.5"/>
</svg>
