<svg width="30" height="30" viewBox="0 0 30 30" fill="none" xmlns="http://www.w3.org/2000/svg">
<path d="M1 15C1 9.81488 1 7.22162 2.6115 5.6115C4.223 4.00137 6.81488 4 12 4H17.5C22.6851 4 25.2784 4 26.8885 5.6115C28.4986 7.223 28.5 9.81488 28.5 15C28.5 20.1851 28.5 22.7784 26.8885 24.3885C25.277 25.9986 22.6851 26 17.5 26H12C6.81488 26 4.22163 26 2.6115 24.3885C1.00137 22.777 1 20.1851 1 15Z" stroke="#06844B" stroke-width="1.5"/>
<path d="M12 21.1875H6.5M9.25 17.0625H6.5M1 12.25H28.5" stroke="#06844B" stroke-width="1.5" stroke-linecap="round"/>
<path d="M17.5 19.125C17.5 17.8284 17.5 17.1808 17.9029 16.7779C18.3058 16.375 18.9534 16.375 20.25 16.375C21.5466 16.375 22.1943 16.375 22.5971 16.7779C23 17.1808 23 17.8284 23 19.125C23 20.4216 23 21.0693 22.5971 21.4721C22.1943 21.875 21.5466 21.875 20.25 21.875C18.9534 21.875 18.3058 21.875 17.9029 21.4721C17.5 21.0693 17.5 20.4216 17.5 19.125Z" stroke="#06844B" stroke-width="1.5"/>
</svg>
