<svg width="26" height="26" viewBox="0 0 26 26" fill="none" xmlns="http://www.w3.org/2000/svg">
<path d="M22 20.2044C22 21.2452 21.707 22.138 21.1211 22.8828C20.5352 23.6276 19.8297 24 19.0047 24H6.99531C6.17031 24 5.46484 23.6276 4.87891 22.8828C4.29297 22.138 4 21.2452 4 20.2044C4 19.3928 4.03984 18.6265 4.11953 17.9056C4.19922 17.1847 4.34687 16.459 4.5625 15.7285C4.77812 14.998 5.05234 14.3726 5.38516 13.8522C5.71797 13.3318 6.15859 12.9069 6.70703 12.5775C7.25547 12.248 7.88594 12.0833 8.59844 12.0833C9.82656 13.3056 11.2937 13.9167 13 13.9167C14.7063 13.9167 16.1734 13.3056 17.4016 12.0833C18.1141 12.0833 18.7445 12.248 19.293 12.5775C19.8414 12.9069 20.282 13.3318 20.6148 13.8522C20.9477 14.3726 21.2219 14.998 21.4375 15.7285C21.6531 16.459 21.8008 17.1847 21.8805 17.9056C21.9602 18.6265 22 19.3928 22 20.2044ZM18.4 7.5C18.4 9.01823 17.8727 10.3145 16.818 11.3887C15.7633 12.4629 14.4906 13 13 13C11.5094 13 10.2367 12.4629 9.18203 11.3887C8.12734 10.3145 7.6 9.01823 7.6 7.5C7.6 5.98177 8.12734 4.68555 9.18203 3.61133C10.2367 2.53711 11.5094 2 13 2C14.4906 2 15.7633 2.53711 16.818 3.61133C17.8727 4.68555 18.4 5.98177 18.4 7.5Z" fill="#06844B"/>
</svg>
