<svg width="18" height="22" viewBox="0 0 18 22" fill="none" xmlns="http://www.w3.org/2000/svg">
<path d="M18 17.6498C18 18.6105 17.707 19.4346 17.1211 20.1221C16.5352 20.8096 15.8297 21.1534 15.0047 21.1534H2.99531C2.17031 21.1534 1.46484 20.8096 0.878906 20.1221C0.292969 19.4346 0 18.6105 0 17.6498C0 16.9006 0.0398438 16.1933 0.119531 15.5278C0.199219 14.8623 0.346875 14.1925 0.5625 13.5182C0.778125 12.8439 1.05234 12.2666 1.38516 11.7862C1.71797 11.3058 2.15859 10.9136 2.70703 10.6095C3.25547 10.3054 3.88594 10.1534 4.59844 10.1534C5.82656 11.2816 7.29375 11.8457 9 11.8457C10.7063 11.8457 12.1734 11.2816 13.4016 10.1534C14.1141 10.1534 14.7445 10.3054 15.293 10.6095C15.8414 10.9136 16.282 11.3058 16.6148 11.7862C16.9477 12.2666 17.2219 12.8439 17.4375 13.5182C17.6531 14.1925 17.8008 14.8623 17.8805 15.5278C17.9602 16.1933 18 16.9006 18 17.6498ZM14.4 5.92263C14.4 7.32407 13.8727 8.52058 12.818 9.51217C11.7633 10.5038 10.4906 10.9995 9 10.9995C7.50937 10.9995 6.23672 10.5038 5.18203 9.51217C4.12734 8.52058 3.6 7.32407 3.6 5.92263C3.6 4.52118 4.12734 3.32467 5.18203 2.33308C6.23672 1.3415 7.50937 0.845703 9 0.845703C10.4906 0.845703 11.7633 1.3415 12.818 2.33308C13.8727 3.32467 14.4 4.52118 14.4 5.92263Z" fill="#9E9E9E"/>
</svg>
