<svg width="28" height="28" viewBox="0 0 28 28" fill="none" xmlns="http://www.w3.org/2000/svg">
<path d="M23.3327 13.9997V6.70684C23.3328 6.61475 23.3147 6.52355 23.2794 6.43847C23.2442 6.35338 23.1925 6.27609 23.1273 6.21101L19.4547 2.53834C19.3235 2.40703 19.1456 2.33317 18.96 2.33301H5.36602C5.18036 2.33301 5.00232 2.40676 4.87104 2.53803C4.73977 2.66931 4.66602 2.84736 4.66602 3.03301V24.9663C4.66602 25.152 4.73977 25.33 4.87104 25.4613C5.00232 25.5926 5.18036 25.6663 5.36602 25.6663H15.166M9.33268 11.6663H18.666M9.33268 6.99967H13.9993M9.33268 16.333H12.8327" stroke="#181725" stroke-width="1.5" stroke-linecap="round" stroke-linejoin="round"/>
<path d="M18.666 2.33301V6.29967C18.666 6.48533 18.7398 6.66337 18.871 6.79465C19.0023 6.92592 19.1804 6.99967 19.366 6.99967H23.3327M23.3233 17.6455L26.3053 18.4027C26.6157 18.482 26.8338 18.7643 26.8245 19.084C26.6238 25.8017 22.7493 26.833 22.7493 26.833C22.7493 26.833 18.8748 25.8017 18.6742 19.084C18.671 18.9285 18.7206 18.7765 18.8149 18.6527C18.9091 18.529 19.0426 18.4409 19.1933 18.4027L22.1753 17.6455C22.5522 17.5498 22.9465 17.5498 23.3233 17.6455Z" stroke="#181725" stroke-width="1.5" stroke-linecap="round" stroke-linejoin="round"/>
</svg>


