<svg width="17" height="20" viewBox="0 0 17 20" fill="none" xmlns="http://www.w3.org/2000/svg">
<path d="M11.75 4.41667H4.41667M6.25 8.08333H4.41667M0.75 16.0088V6.2995C0.75 3.68333 0.75 2.37617 1.55575 1.56308C2.36058 0.75 3.65767 0.75 6.25 0.75H9.91667C12.509 0.75 13.8061 0.75 14.6109 1.56308C15.4167 2.37525 15.4167 3.68333 15.4167 6.2995V16.0088C15.4167 17.3939 15.4167 18.0869 14.9932 18.3601C14.3011 18.8056 13.2313 17.8706 12.6932 17.5314C12.2487 17.2509 12.0268 17.1116 11.7793 17.1033C11.5135 17.0942 11.2871 17.2289 10.8067 17.5314L9.055 18.636C8.582 18.9339 8.34642 19.0833 8.08333 19.0833C7.82025 19.0833 7.58467 18.9339 7.11167 18.636L5.36083 17.5314C4.91533 17.2509 4.6935 17.1116 4.44692 17.1033C4.18017 17.0942 3.95375 17.2289 3.47342 17.5314C2.93533 17.8706 1.86558 18.8056 1.17258 18.3601C0.75 18.0869 0.75 17.3948 0.75 16.0088Z" stroke="#181725" stroke-width="1.5" stroke-linecap="round" stroke-linejoin="round"/>
<path d="M10.375 7.96908C9.616 7.96908 9 8.50808 9 9.17266C9 9.83633 9.616 10.3753 10.375 10.3753C11.134 10.3753 11.75 10.9143 11.75 11.5789C11.75 12.2426 11.134 12.7816 10.375 12.7816M10.375 7.96908C10.9736 7.96908 11.4833 8.30366 11.6721 8.77116M10.375 7.96908V7.16699M10.375 12.7816C9.77642 12.7816 9.26675 12.447 9.07792 11.9795M10.375 12.7816V13.5837" stroke="#181725" stroke-width="1.5" stroke-linecap="round" stroke-linejoin="round"/>
</svg>
