<svg width="14" height="14" viewBox="0 0 14 14" fill="none" xmlns="http://www.w3.org/2000/svg">
<g clip-path="url(#clip0_6962_5381)">
<path d="M12.835 10.0335C12.835 8.87375 12.0517 7.93359 11.0855 7.93359C10.1192 7.93359 9.33594 8.87375 9.33594 10.0335C9.33594 11.1932 10.1192 12.1334 11.0855 12.1334C12.0517 12.1334 12.835 11.1932 12.835 10.0335Z" stroke="#181725"/>
<path d="M6.41653 10.0334V8.98345C6.41653 7.66332 6.41653 7.00395 6.07479 6.59377C5.73305 6.18359 5.1837 6.18359 4.08383 6.18359H3.73393C3.51757 6.18359 3.4091 6.18359 3.31754 6.19199C2.7638 6.24428 2.24378 6.53201 1.85101 7.00343C1.45825 7.47485 1.21853 8.09902 1.17497 8.76366C1.16797 8.87356 1.16797 9.00445 1.16797 9.26344C1.16797 9.32853 1.16797 9.36143 1.16972 9.38803C1.18055 9.55431 1.24049 9.71048 1.33875 9.82841C1.43701 9.94635 1.56712 10.0183 1.70565 10.0313C1.74023 10.0332 1.77485 10.0339 1.80946 10.0334H6.41653ZM6.41653 10.0334H9.33239" stroke="#181725" stroke-linecap="round"/>
<path d="M5.54451 10.0326C5.54451 10.5895 5.36005 11.1237 5.03172 11.5175C4.70339 11.9113 4.25807 12.1325 3.79374 12.1325C3.32941 12.1325 2.88409 11.9113 2.55576 11.5175C2.22742 11.1237 2.04297 10.5895 2.04297 10.0326M7.00349 2.33301H7.31162C8.01368 2.33301 8.36442 2.33301 8.64629 2.5423C8.92875 2.75089 9.08573 3.12747 9.39912 3.88063L11.0886 7.93272M10.5885 6.53279L10.9859 6.18141C11.1394 6.04562 11.2164 5.97842 11.2695 5.88953C11.3059 5.82946 11.3341 5.76283 11.353 5.69214C11.3804 5.58784 11.3804 5.47375 11.3804 5.24556C11.3804 4.81298 11.3804 4.59739 11.3034 4.4357C11.2517 4.32722 11.1767 4.23731 11.0863 4.17531C10.9521 4.08292 10.7711 4.08292 10.4111 4.08292H9.62964" stroke="#181725" stroke-linecap="round"/>
<path d="M11.0855 12.1334C12.0517 12.1334 12.835 11.1932 12.835 10.0335C12.835 8.87375 12.0517 7.93359 11.0855 7.93359C10.1192 7.93359 9.33594 8.87375 9.33594 10.0335C9.33594 11.1932 10.1192 12.1334 11.0855 12.1334Z" stroke="#181725"/>
</g>
<defs>
<clipPath id="clip0_6962_5381">
<rect width="14" height="14" fill="white"/>
</clipPath>
</defs>
</svg>
