<svg width="28" height="28" viewBox="0 0 28 28" fill="none" xmlns="http://www.w3.org/2000/svg">
<path d="M14 17.5C15.933 17.5 17.5 15.933 17.5 14C17.5 12.067 15.933 10.5 14 10.5C12.067 10.5 10.5 12.067 10.5 14C10.5 15.933 12.067 17.5 14 17.5Z" stroke="#181725" stroke-width="1.5"/>
<path d="M16.0587 2.51034C15.6305 2.33301 15.0869 2.33301 13.9995 2.33301C12.9122 2.33301 12.3685 2.33301 11.9404 2.51034C11.6571 2.62761 11.3997 2.79955 11.1829 3.01635C10.9661 3.23315 10.7941 3.49055 10.6769 3.77384C10.5696 4.03401 10.5264 4.33851 10.51 4.78067C10.5025 5.10026 10.4139 5.41269 10.2527 5.68875C10.0915 5.96482 9.86297 6.19548 9.58838 6.35918C9.30932 6.51524 8.99523 6.59796 8.6755 6.59959C8.35577 6.60122 8.04085 6.52172 7.76022 6.36851C7.36822 6.16084 7.08472 6.04651 6.80355 6.00917C6.19025 5.92852 5.57003 6.0947 5.07922 6.47117C4.71288 6.75467 4.43988 7.22484 3.89622 8.16634C3.35255 9.10784 3.07955 9.57801 3.02005 10.0388C2.97996 10.3427 3.00012 10.6515 3.07939 10.9476C3.15866 11.2436 3.29549 11.5212 3.48205 11.7643C3.65472 11.9883 3.89622 12.1762 4.27072 12.4118C4.82255 12.7583 5.17722 13.3487 5.17722 13.9997C5.17722 14.6507 4.82255 15.241 4.27072 15.5863C3.89622 15.8232 3.65355 16.011 3.48205 16.235C3.29549 16.4782 3.15866 16.7557 3.07939 17.0518C3.00012 17.3479 2.97996 17.6566 3.02005 17.9605C3.08072 18.4202 3.35255 18.8915 3.89505 19.833C4.43988 20.7745 4.71172 21.2447 5.07922 21.5282C5.32239 21.7147 5.59994 21.8516 5.89601 21.9308C6.19207 22.0101 6.50085 22.0303 6.80472 21.9902C7.08472 21.9528 7.36822 21.8385 7.76022 21.6308C8.04085 21.4776 8.35577 21.3981 8.6755 21.3998C8.99523 21.4014 9.30932 21.4841 9.58838 21.6402C10.1519 21.9668 10.4867 22.5677 10.51 23.2187C10.5264 23.662 10.5684 23.9653 10.6769 24.2255C10.7941 24.5088 10.9661 24.7662 11.1829 24.983C11.3997 25.1998 11.6571 25.3717 11.9404 25.489C12.3685 25.6663 12.9122 25.6663 13.9995 25.6663C15.0869 25.6663 15.6305 25.6663 16.0587 25.489C16.342 25.3717 16.5994 25.1998 16.8162 24.983C17.033 24.7662 17.205 24.5088 17.3222 24.2255C17.4295 23.9653 17.4727 23.662 17.489 23.2187C17.5124 22.5677 17.8472 21.9657 18.4107 21.6402C18.6898 21.4841 19.0039 21.4014 19.3236 21.3998C19.6433 21.3981 19.9582 21.4776 20.2389 21.6308C20.6309 21.8385 20.9144 21.9528 21.1944 21.9902C21.4982 22.0303 21.807 22.0101 22.1031 21.9308C22.3992 21.8516 22.6767 21.7147 22.9199 21.5282C23.2874 21.2458 23.5592 20.7745 24.1029 19.833C24.6465 18.8915 24.9195 18.4213 24.979 17.9605C25.0191 17.6566 24.999 17.3479 24.9197 17.0518C24.8404 16.7557 24.7036 16.4782 24.517 16.235C24.3444 16.011 24.1029 15.8232 23.7284 15.5875C23.4553 15.4211 23.2289 15.1882 23.0704 14.9105C22.9118 14.6328 22.8263 14.3194 22.8219 13.9997C22.8219 13.3487 23.1766 12.7583 23.7284 12.413C24.1029 12.1762 24.3455 11.9883 24.517 11.7643C24.7036 11.5212 24.8404 11.2436 24.9197 10.9476C24.999 10.6515 25.0191 10.3427 24.979 10.0388C24.9184 9.57917 24.6465 9.10784 24.104 8.16634C23.5592 7.22484 23.2874 6.75467 22.9199 6.47117C22.6767 6.28461 22.3992 6.14779 22.1031 6.06852C21.807 5.98925 21.4982 5.96908 21.1944 6.00917C20.9144 6.04651 20.6309 6.16084 20.2377 6.36851C19.9572 6.52151 19.6425 6.6009 19.323 6.59927C19.0035 6.59764 18.6896 6.51503 18.4107 6.35918C18.1361 6.19548 17.9076 5.96482 17.7464 5.68875C17.5852 5.41269 17.4966 5.10026 17.489 4.78067C17.4727 4.33734 17.4307 4.03401 17.3222 3.77384C17.205 3.49055 17.033 3.23315 16.8162 3.01635C16.5994 2.79955 16.342 2.62761 16.0587 2.51034Z" stroke="#181725" stroke-width="1.5"/>
</svg>
