<svg width="159" height="41" viewBox="0 0 159 41" fill="none" xmlns="http://www.w3.org/2000/svg">
<path d="M11.368 40L0.56 0.799997H9.968L16.744 28.24L24.304 0.799997H31.584L39.144 28.24L45.92 0.799997H55.328L44.52 40H34.328L27.944 16.872L21.56 40H11.368ZM130.819 0.799997L117.659 24.936V40H108.699V24.936L95.5391 0.799997H105.731L113.179 15.92L120.627 0.799997H130.819ZM143.133 31.376H158.812V40H134.173V0.799997H158.533V9.424H143.133V15.92H157.133V24.432H143.133V31.376Z" fill="white"/>
<path d="M76.2593 40.784C65.0033 40.784 55.8753 31.936 55.8753 20.4C55.8753 8.864 65.0033 0.0159974 76.2593 0.0159974C87.5153 0.0159974 96.6433 8.864 96.6433 20.4C96.6433 31.936 87.5153 40.784 76.2593 40.784ZM76.2593 32.048C82.6433 32.048 87.6833 27.4 87.6833 20.4C87.6833 13.4 82.6433 8.752 76.2593 8.752C69.8753 8.752 64.8353 13.4 64.8353 20.4C64.8353 27.4 69.8753 32.048 76.2593 32.048Z" fill="#06844B"/>
</svg>
