<svg width="28" height="28" viewBox="0 0 28 28" fill="none" xmlns="http://www.w3.org/2000/svg">
<path d="M27 15C27.002 16.5755 26.6931 18.1359 26.0909 19.5918C25.4887 21.0478 24.6052 22.3705 23.4908 23.4843C22.376 24.5994 21.0522 25.4839 19.5953 26.0871C18.1384 26.6904 16.5769 27.0006 15.0001 27C13.303 27.0037 11.6246 26.6455 10.0769 25.9492L5.06028 26.6912C4.8112 26.7319 4.55596 26.7111 4.31672 26.6308C4.07749 26.5504 3.86149 26.4128 3.6875 26.23C3.51351 26.0472 3.38678 25.8246 3.31832 25.5817C3.24986 25.3388 3.24174 25.0828 3.29467 24.8361L3.99132 19.7468C3.32865 18.2525 2.99083 16.6346 3.00019 15C2.99817 13.4245 3.30711 11.864 3.90928 10.4081C4.51145 8.95222 5.39502 7.62946 6.50935 6.51567C7.62422 5.40054 8.94794 4.51607 10.4048 3.91283C11.8617 3.30959 13.4232 2.9994 15.0001 3C18.1844 3.00021 21.2384 4.26474 23.4908 6.51567C24.6046 7.62989 25.4878 8.95272 26.0899 10.4085C26.692 11.8643 27.0013 13.4246 27 15Z" stroke="#181725" stroke-width="1.5" stroke-linecap="round" stroke-linejoin="round"/>
<circle cx="10.1984" cy="14.3996" r="1.8" fill="#181725"/>
<circle cx="14.9973" cy="14.3996" r="1.8" fill="#181725"/>
<circle cx="19.798" cy="14.3996" r="1.8" fill="#181725"/>
</svg>
