<svg width="48" height="44" viewBox="0 0 48 44" fill="none" xmlns="http://www.w3.org/2000/svg">
<path d="M47.125 24.5V13.25C47.125 9.93479 45.808 6.75537 43.4638 4.41117C41.1196 2.06696 37.9402 0.75 34.625 0.75H13.375C10.0598 0.75 6.88037 2.06696 4.53617 4.41117C2.19196 6.75537 0.875 9.93479 0.875 13.25V30.75C0.875 32.3915 1.19832 34.017 1.82651 35.5335C2.45469 37.0501 3.37543 38.4281 4.53617 39.5888C6.88037 41.933 10.0598 43.25 13.375 43.25H29.025" stroke="#A8A8A8" stroke-width="1.5" stroke-linecap="round" stroke-linejoin="round"/>
<path d="M1.52539 34.5L8.37539 26.5C9.27499 25.6065 10.4557 25.0513 11.7176 24.9283C12.9795 24.8052 14.2452 25.122 15.3004 25.825C16.3556 26.5279 17.6213 26.8447 18.8832 26.7217C20.1451 26.5986 21.3258 26.0434 22.2254 25.15L28.0504 19.325C29.7241 17.6455 31.9401 16.6155 34.303 16.4186C36.6658 16.2217 39.0218 16.8707 40.9504 18.25L47.1254 23.025M14.0254 17.425C14.5704 17.4217 15.1094 17.3111 15.6116 17.0995C16.1139 16.8879 16.5695 16.5795 16.9526 16.1918C17.3356 15.8041 17.6385 15.3448 17.8441 14.84C18.0496 14.3352 18.1537 13.7949 18.1504 13.25C18.1471 12.705 18.0365 12.166 17.8249 11.6637C17.6133 11.1615 17.3049 10.7058 16.9172 10.3228C16.5295 9.93974 16.0702 9.63681 15.5654 9.43129C15.0607 9.22576 14.5204 9.12167 13.9754 9.12495C12.8747 9.13158 11.8218 9.57517 11.0482 10.3581C10.2746 11.1411 9.84376 12.1993 9.85039 13.3C9.85702 14.4006 10.3006 15.4535 11.0836 16.2271C11.8665 17.0007 12.9247 17.4316 14.0254 17.425Z" stroke="#A8A8A8" stroke-width="1.5" stroke-linecap="round" stroke-linejoin="round"/>
<path d="M40.7676 29.5V42" stroke="#A8A8A8" stroke-width="1.5" stroke-miterlimit="10" stroke-linecap="round"/>
<path d="M46.5002 34.762L41.5827 29.8445C41.4758 29.7372 41.3488 29.652 41.2089 29.5939C41.0691 29.5358 40.9191 29.5059 40.7677 29.5059C40.6162 29.5059 40.4662 29.5358 40.3264 29.5939C40.1865 29.652 40.0595 29.7372 39.9527 29.8445L35.0352 34.762" stroke="#A8A8A8" stroke-width="1.5" stroke-linecap="round" stroke-linejoin="round"/>
</svg>
