<svg width="28" height="28" viewBox="0 0 28 28" fill="none" xmlns="http://www.w3.org/2000/svg">
<path d="M7 9.33398H11.6667" stroke="#181725" stroke-width="1.5" stroke-linecap="round" stroke-linejoin="round"/>
<path d="M24.3052 10.5H21.2695C19.187 10.5 17.5 12.0668 17.5 14C17.5 15.9332 19.1882 17.5 21.2683 17.5H24.3052C24.4032 17.5 24.451 17.5 24.4918 17.4977C25.1218 17.4592 25.6235 16.9937 25.6643 16.4092C25.6667 16.3718 25.6667 16.3263 25.6667 16.2365V11.7635C25.6667 11.6737 25.6667 11.6282 25.6643 11.5908C25.6223 11.0063 25.1218 10.5408 24.4918 10.5023C24.4522 10.5 24.4032 10.5 24.3052 10.5Z" stroke="#181725" stroke-width="1.5"/>
<path d="M24.4598 10.5003C24.3688 8.31633 24.0771 6.97699 23.1333 6.03433C21.7671 4.66699 19.5668 4.66699 15.1673 4.66699H11.6673C7.26782 4.66699 5.06748 4.66699 3.70132 6.03433C2.33515 7.40166 2.33398 9.60083 2.33398 14.0003C2.33398 18.3998 2.33398 20.6002 3.70132 21.9663C5.06865 23.3325 7.26782 23.3337 11.6673 23.3337H15.1673C19.5668 23.3337 21.7671 23.3337 23.1333 21.9663C24.0771 21.0237 24.37 19.6843 24.4598 17.5003" stroke="#181725" stroke-width="1.5"/>
<path d="M20.9902 14H21.0019" stroke="#181725" stroke-width="1.5" stroke-linecap="round" stroke-linejoin="round"/>
</svg>
