<svg width="146" height="41" viewBox="0 0 146 41" fill="none" xmlns="http://www.w3.org/2000/svg">
<path d="M9.01601 39.76C8.53068 39.76 8.13868 39.6293 7.84001 39.368C7.57868 39.1067 7.39201 38.7333 7.28001 38.248L0.0560108 2.29601C0.0186776 2.14667 1.09375e-05 2.01601 1.09375e-05 1.90401C1.09375e-05 1.79201 1.09375e-05 1.71734 1.09375e-05 1.68001C1.09375e-05 1.38134 0.112011 1.12001 0.336011 0.896009C0.560011 0.672008 0.821344 0.560007 1.12001 0.560007H4.03201C4.81601 0.560007 5.26401 0.877341 5.37601 1.51201L11.088 30.408L17.136 10.584C17.248 10.248 17.4347 9.94934 17.696 9.68801C17.9947 9.38934 18.4053 9.24001 18.928 9.24001H21C21.56 9.24001 21.9707 9.38934 22.232 9.68801C22.4933 9.94934 22.6613 10.248 22.736 10.584L28.84 30.408L34.496 1.51201C34.608 0.877341 35.0747 0.560007 35.896 0.560007H38.808C39.1067 0.560007 39.368 0.672008 39.592 0.896009C39.816 1.12001 39.928 1.38134 39.928 1.68001C39.928 1.71734 39.9093 1.79201 39.872 1.90401C39.872 2.01601 39.872 2.14667 39.872 2.29601L32.648 38.248C32.536 38.7333 32.3307 39.1067 32.032 39.368C31.7707 39.6293 31.3973 39.76 30.912 39.76H28.728C28.2053 39.76 27.7947 39.6293 27.496 39.368C27.1973 39.1067 26.992 38.7707 26.88 38.36L19.936 17.024L13.048 38.36C12.8987 38.7707 12.6747 39.1067 12.376 39.368C12.1147 39.6293 11.7227 39.76 11.2 39.76H9.01601ZM94.7227 39.76C94.3494 39.76 94.032 39.648 93.7707 39.424C93.5467 39.1627 93.4347 38.8453 93.4347 38.472V25.256L79.9387 2.40801C79.9014 2.29601 79.864 2.18401 79.8267 2.07201C79.7894 1.96001 79.7707 1.82934 79.7707 1.68001C79.7707 1.38134 79.8827 1.12001 80.1067 0.896009C80.3307 0.672008 80.592 0.560007 80.8907 0.560007H83.8027C84.1387 0.560007 84.4374 0.65334 84.6987 0.840007C84.96 0.98934 85.1467 1.21334 85.2587 1.51201L96.1787 19.656L107.099 1.51201C107.285 1.21334 107.491 0.98934 107.715 0.840007C107.976 0.65334 108.275 0.560007 108.611 0.560007H111.467C111.803 0.560007 112.083 0.672008 112.307 0.896009C112.531 1.12001 112.643 1.38134 112.643 1.68001C112.643 1.82934 112.624 1.96001 112.587 2.07201C112.549 2.18401 112.493 2.29601 112.419 2.40801L98.9787 25.256V38.472C98.9787 38.8453 98.848 39.1627 98.5867 39.424C98.3627 39.648 98.0454 39.76 97.6347 39.76H94.7227ZM120.509 39.76C120.098 39.76 119.781 39.648 119.557 39.424C119.333 39.1627 119.221 38.8453 119.221 38.472V1.90401C119.221 1.49334 119.333 1.17601 119.557 0.952009C119.781 0.690674 120.098 0.560007 120.509 0.560007H143.637C144.047 0.560007 144.365 0.690674 144.589 0.952009C144.813 1.17601 144.925 1.49334 144.925 1.90401V4.03201C144.925 4.44267 144.813 4.76001 144.589 4.98401C144.365 5.20801 144.047 5.32001 143.637 5.32001H124.597V17.584H142.405C142.815 17.584 143.133 17.7147 143.357 17.976C143.581 18.2 143.693 18.5173 143.693 18.928V21C143.693 21.3733 143.581 21.6907 143.357 21.952C143.133 22.176 142.815 22.288 142.405 22.288H124.597V35H144.085C144.495 35 144.813 35.112 145.037 35.336C145.261 35.56 145.373 35.8773 145.373 36.288V38.472C145.373 38.8453 145.261 39.1627 145.037 39.424C144.813 39.648 144.495 39.76 144.085 39.76H120.509Z" fill="#181725"/>
<path d="M60.8156 40.32C57.6422 40.32 54.9169 39.7787 52.6396 38.696C50.3622 37.576 48.6076 35.8773 47.3756 33.6C46.1436 31.2853 45.4529 28.392 45.3036 24.92C45.2662 23.2773 45.2476 21.7093 45.2476 20.216C45.2476 18.6853 45.2662 17.0987 45.3036 15.456C45.4529 12.0213 46.1622 9.16534 47.4316 6.88801C48.7382 4.57334 50.5302 2.85601 52.8076 1.73601C55.1222 0.578675 57.7916 7.62939e-06 60.8156 7.62939e-06C63.8769 7.62939e-06 66.5462 0.578675 68.8236 1.73601C71.1382 2.85601 72.9489 4.57334 74.2556 6.88801C75.5622 9.16534 76.2716 12.0213 76.3836 15.456C76.4582 17.0987 76.4956 18.6853 76.4956 20.216C76.4956 21.7093 76.4582 23.2773 76.3836 24.92C76.2716 28.392 75.5809 31.2853 74.3116 33.6C73.0796 35.8773 71.3249 37.576 69.0476 38.696C66.7702 39.7787 64.0262 40.32 60.8156 40.32ZM60.8156 35.56C63.6902 35.56 66.0236 34.7013 67.8156 32.984C69.6449 31.2667 70.6342 28.4853 70.7836 24.64C70.8582 22.96 70.8956 21.4667 70.8956 20.16C70.8956 18.816 70.8582 17.3227 70.7836 15.68C70.7089 13.104 70.2236 11.0133 69.3276 9.40801C68.4689 7.80267 67.3116 6.62667 65.8556 5.88001C64.3996 5.13334 62.7196 4.76001 60.8156 4.76001C58.9862 4.76001 57.3436 5.13334 55.8876 5.88001C54.4316 6.62667 53.2556 7.80267 52.3596 9.40801C51.5009 11.0133 51.0156 13.104 50.9036 15.68C50.8662 17.3227 50.8476 18.816 50.8476 20.16C50.8476 21.4667 50.8662 22.96 50.9036 24.64C51.0529 28.4853 52.0422 31.2667 53.8716 32.984C55.7009 34.7013 58.0156 35.56 60.8156 35.56Z" fill="#06844B"/>
</svg>
