<svg width="26" height="22" viewBox="0 0 26 22" fill="none" xmlns="http://www.w3.org/2000/svg">
<path d="M13.0636 20.6028L13.0636 20.6028L13.0592 20.6051C13.041 20.6149 13.0207 20.62 13 20.62C12.9793 20.62 12.959 20.6149 12.9408 20.6051L12.9364 20.6028C12.72 20.4882 9.81758 18.9064 6.98056 16.4218C4.10411 13.9028 1.50021 10.6337 1.5 7.15667C1.50191 5.55757 2.138 4.0245 3.26875 2.89375C4.3995 1.763 5.93257 1.12691 7.53167 1.125C9.57091 1.12512 11.3191 1.99834 12.4002 3.43829L13 4.23708L13.5998 3.43829C14.6809 1.99834 16.4291 1.12512 18.4683 1.125C20.0674 1.12691 21.6005 1.763 22.7312 2.89375C23.8621 4.0246 24.4982 5.55784 24.5 7.15709C24.4996 10.634 21.8958 13.9029 19.0194 16.4218C16.1824 18.9064 13.28 20.4882 13.0636 20.6028Z" stroke="#949494" stroke-width="1.5"/>
</svg>
